<svg xmlns="http://www.w3.org/2000/svg" xmlns:xlink="http://www.w3.org/1999/xlink" width="484.705" height="184" viewBox="0 0 484.705 184"><g><path d="M142.593 70.496c.079 1.517-.546 2.949-1.873 4.3-1.326 1.353-2.954 2.582-4.879 3.691-1.927 1.11-4.003 2.036-6.225 2.781-2.224.746-4.163 1.227-5.823 1.437-3.529.446-6.771.19-9.73-.777-2.96-.968-5.511-2.505-7.654-4.624-2.143-2.117-3.875-4.786-5.197-8.006-1.321-3.219-2.136-6.85-2.43-10.894-.29-3.98-.036-7.817.765-11.51.8-3.692 2.062-7.003 3.784-9.926 1.723-2.923 3.863-5.339 6.42-7.246 2.557-1.905 5.473-3.067 8.743-3.477 4.477-.561 13.646 1.108 14.435 2.774.337.711-.898 4.38-1.115 6.852-.217 2.474-.081 7.976-.081 7.976-.412.27-6.138-2.338-8.536-2.044-4.375.536-6.358 3.987-5.956 10.305.105 1.645.411 3.387.916 5.233.505 1.845 1.175 3.544 2.012 5.093.836 1.55 1.796 2.798 2.872 3.745 1.076.947 2.205 1.348 3.392 1.203 2.369-.29 5.573-7.023 6.223-7.229.168-.053 1.547 1.19 2.662 2.272 1.115 1.083 2.21 2.184 3.289 3.305 1.077 1.121 2.011 2.149 2.796 3.081.784.934 1.18 1.495 1.19 1.685zm-3.505 1.237c.072.057-.214.278-.856.667-.645.39-1.407.839-2.287 1.352-.882.515-1.763 1.013-2.644 1.497-.882.484-1.929 1.086-1.929 1.086-.003-.004 4.256-6.409 4.256-6.409-.058-.05-2.76 1.716-3.809 2.348-1.05.633-2.062.976-3.039 1.029l-1.569.094c.749-.345 1.472-.847 2.169-1.503s1.321-1.365 1.873-2.13c.551-.764.982-1.548 1.288-2.346.305-.797.436-1.576.393-2.335l-.016-.284c-2.143 3.11-4.321 4.801-6.548 5.074-1.532.188-2.974-.174-4.328-1.084-1.355-.911-2.576-2.172-3.663-3.782-1.086-1.609-1.979-3.438-2.676-5.48-.696-2.042-1.114-4.106-1.25-6.192-.259-3.98.436-7.181 2.094-9.594 1.657-2.412 4.291-3.846 7.894-4.282 2.047-.248 5.555.106 5.555.106 0-.001-1.005-.441-1.707-.898-.702-.457-1.48-.959-2.329-1.493-.85-.534-1.683-1.039-2.495-1.512-.813-.474-2.193-.878-2.193-.878-.002-.028 1.292-.445 1.364-.454.425-.052.98-.008 1.666.132.684.14 1.392.296 2.113.464.721.168 1.375.347 1.956.534.579.186 1.407.313 1.407.313.064-.153-6.481-4.674-6.481-4.674.001-.022.455-.151.739-.186l.531-.063c.283-.034.659-.013 1.128.059.468.072.956.139 1.458.207l1.512.206c.502.069.896.087 1.18.055.141-.016.521-.302.516-.345-.125-1.026-7.563-3.412-11.326-2.941-2.7.337-5.153 1.437-7.354 3.289-2.203 1.855-4.047 4.181-5.53 6.969-1.483 2.789-2.585 5.897-3.303 9.317-.718 3.422-.95 6.87-.703 10.344.27 3.791 1.055 7.14 2.349 10.047 1.294 2.909 3.007 5.314 5.134 7.217 2.126 1.903 4.629 3.248 7.51 4.044 2.881.796 6.049.977 9.515.55 1.039-.128 2.189-.444 3.452-.945 1.262-.5 2.5-1.108 3.718-1.822 1.217-.713 2.326-1.522 3.325-2.429.998-.906 1.751-1.833 2.262-2.781l-.322-.158zm-23.75 1.656c-.625.083-1.305-.114-2.036-.587-.732-.474-1.404-1.068-2.013-1.781-.609-.712-1.137-1.503-1.582-2.366-.444-.862-.694-1.672-.746-2.431l.212-1.56c1.744 3.904 3.969 6.754 6.68 8.559l-.515.166zm2.124-2.958c.016.042-.302.23-.72.285-.558.074-1.11-.09-1.663-.495-.553-.404-1.045-.928-1.474-1.571-.428-.643-.792-1.345-1.089-2.101-.297-.756-.465-1.45-.507-2.083-.059-.884.175-2.128.175-2.128.19-.009 2.096 4.547 2.803 5.695.709 1.149 2.388 2.158 2.475 2.398zm13.607 6.129c-.013-.011.028-.097.099-.105l.204-.119c-.133.143-.292.233-.303.224zM187.45 60.657c-1.714.637-2.571.957-4.283 1.601.156 4.776.235 7.163.392 11.939-5.831.794-8.744 1.212-14.564 2.091l-.542-13.659c-2.961.52-4.442.785-7.399 1.327-.374 4.985-.559 7.477-.926 12.463-5.848 1.027-8.767 1.562-14.602 2.674l-.793-15.536-2.499.34c-.718-5.104-1.078-7.657-1.801-12.761 1.111-.119 1.667-.177 2.778-.292l.929-.646c.232-7.777.35-11.666.593-19.442 6.293-.318 9.44-.453 15.735-.675l.77 17.954c2.818-.242 4.228-.359 7.047-.583.262-6.629.396-9.943.666-16.571 5.859-.451 8.789-.655 14.652-1.022l.554 17.323 1.916-.122c.553 5.438.829 8.159 1.377 13.597zm-42.471.911l-.465-9.133-2.181-.009c.303 3.83.455 5.744.757 9.574l1.889-.432zm10.855-28.81c-.255 2.155-.382 3.233-.635 5.389-.45-2.186-.675-3.279-1.127-5.464l-1.939-.054c-.473 2.679-.708 4.018-1.177 6.697l-.842-6.587c-1.411-.054-2.114-.078-3.525-.127.198 14.625.402 29.25.615 43.874l1.963-.435.242-5.595c.643 1.818.962 2.729 1.603 4.548l2.674-.026c.148-2.712.222-4.067.373-6.779.493 2.4.739 3.6 1.229 6 1.273-.089 1.909-.132 3.182-.217.183-7.488.261-14.55.229-21.183-.031-6.632-.19-13.277-.483-19.939l-2.382-.102zm-2.855 23.546l-.756.544-.717-.401.665-.691.808.548zm15.804 3.715c-2.038-.621-3.058-.928-5.099-1.539 2.001-.326 3.003-.488 5.006-.804l-.148-3.746c-2.032-.34-3.049-.507-5.083-.837 1.999-.513 3-.768 5.001-1.271l-.099-2.498c-2.951.359-4.427.544-7.376.925l.478 11.083c2.925-.535 4.39-.798 7.32-1.313zm13.324 12.007c-.451-13.5-.898-27-1.352-40.5-1.158.076-1.735.114-2.893.193-.344 2.245-.515 3.369-.856 5.614-.498-2.187-.748-3.282-1.248-5.469l-1.929.139.212 5.775c-1.206-2.291-1.811-3.437-3.023-5.725.051 13.721.11 27.441.181 41.162.735-3.283 1.107-4.925 1.849-8.207.714 3.327 1.069 4.992 1.778 8.319l.693-4.591c.479 1.749.718 2.623 1.195 4.372 2.157-.439 3.235-.654 5.393-1.082zm-4.841-17.421l-.677.517-.724-.731.694-.127.707.341zm8.214 4.063c-.352-3.449-.53-5.173-.884-8.623l-1.216.078c.014 3.659.022 5.487.037 9.146l2.063-.601zM209.009 24.967c.328 16.309.656 32.617.985 48.926-6.813 1.014-10.217 1.55-17.014 2.679.308-17.43.63-34.86.969-52.29 6.027.232 9.039.367 15.06.685zm-2.085 46.165c-.32-14.893-.641-29.786-.963-44.678l-2.522.507c-.57 2.016-.854 3.023-1.421 5.04-.371-1.975-.558-2.96-.931-4.935l-1.269-.022c-.452 2.27-.676 3.405-1.125 5.676-.672-2.313-1.009-3.469-1.685-5.781l-.635-.048c-.167 15.595-.326 31.19-.465 46.786 1.722-.511 2.584-.765 4.309-1.269.244-3.033.368-4.548.614-7.58.779 2.757 1.166 4.137 1.939 6.895l1.68-.159.618-4.124.971 3.811.885-.119zM254.051 62.721c-.001 1.334-.62 2.528-1.853 3.582-1.236 1.055-2.729 1.972-4.482 2.756-1.751.783-3.625 1.391-5.623 1.825s-3.733.663-5.21.684c-3.136.043-5.985-.501-8.552-1.641-2.567-1.141-4.747-2.74-6.535-4.807-1.788-2.066-3.187-4.572-4.195-7.52-1.008-2.947-1.546-6.202-1.607-9.767-.06-3.508.35-6.835 1.236-9.984.886-3.146 2.157-5.915 3.817-8.298 1.66-2.383 3.663-4.283 6.006-5.696 2.343-1.412 4.965-2.138 7.862-2.175 3.965-.05 11.946 2.203 12.569 3.836.252.66-.997 3.741-1.304 5.882-.308 2.142-.449 6.968-.449 6.968-.361.2-5.291-2.643-7.417-2.621-3.881.04-5.794 2.86-5.742 8.424.014 1.448.2 3.003.557 4.667.357 1.663.866 3.215 1.529 4.651.663 1.438 1.448 2.622 2.352 3.556s1.882 1.397 2.936 1.387c2.104-.021 5.297-5.589 5.831-5.714.151-.036 1.307 1.191 2.239 2.246.932 1.055 1.85 2.126 2.747 3.21.896 1.082 1.672 2.073 2.319 2.963.645.888.969 1.419.969 1.586zm-3.15.745c.06.056-.201.222-.786.5-.588.279-1.282.599-2.081.962-.802.364-1.604.714-2.405 1.052-.801.337-1.753.76-1.753.76-.002-.004 4.057-5.19 4.057-5.19-.051-.053-2.515 1.232-3.47 1.683-.956.451-1.864.651-2.728.603l-1.389-.07c.676-.229 1.336-.597 1.983-1.103.646-.506 1.231-1.066 1.755-1.682.522-.615.938-1.255 1.245-1.924.307-.669.459-1.337.457-2.004l-.001-.252c-2.037 2.511-4.038 3.779-6.015 3.799-1.36.014-2.617-.443-3.768-1.373-1.152-.93-2.167-2.154-3.048-3.669-.881-1.515-1.582-3.201-2.098-5.056-.516-1.854-.785-3.701-.804-5.538-.037-3.506.73-6.235 2.306-8.181 1.576-1.945 3.963-2.941 7.158-2.97 1.814-.016 4.887.635 4.887.635s-.865-.482-1.461-.952c-.597-.469-1.256-.982-1.979-1.531-.723-.55-1.434-1.073-2.125-1.566-.694-.495-1.887-.983-1.887-.983 0-.024 1.156-.262 1.22-.263.377-.004.864.088 1.46.277.596.189 1.212.395 1.84.613s1.192.437 1.694.656c.502.219 1.227.412 1.227.412.065-.122-5.485-4.719-5.485-4.719.003-.019.409-.089.659-.091l.471-.004c.25-.002.582.051.99.159.41.109.835.219 1.276.328l1.317.325s.787.165 1.04.164c.125 0 .471-.214.47-.252-.031-.938-6.494-3.72-9.829-3.678-2.392.03-4.603.746-6.63 2.148-2.028 1.403-3.763 3.254-5.205 5.543-1.442 2.29-2.565 4.898-3.364 7.816-.8 2.918-1.172 5.912-1.125 8.973.052 3.341.583 6.348 1.583 9.02s2.394 4.944 4.178 6.819c1.785 1.877 3.929 3.302 6.434 4.284 2.504.981 5.294 1.452 8.373 1.418.923-.01 1.953-.173 3.091-.488 1.138-.314 2.259-.725 3.367-1.23s2.124-1.107 3.048-1.804c.923-.696 1.631-1.431 2.125-2.21l-.275-.166zm-21.034-.88c-.556.011-1.146-.226-1.769-.713-.624-.488-1.188-1.076-1.69-1.76-.502-.684-.93-1.425-1.28-2.224-.35-.797-.531-1.534-.54-2.201l.261-1.342c1.35 3.588 3.175 6.301 5.48 8.147l-.462.093zm2.016-2.377c.011.039-.276.172-.647.179-.496.009-.976-.189-1.444-.598s-.876-.917-1.223-1.521c-.347-.604-.633-1.251-.858-1.943-.225-.69-.34-1.314-.347-1.872-.009-.779.257-1.843.257-1.843.173.002 1.628 4.183 2.197 5.258.569 1.075 2.001 2.108 2.065 2.34zm11.716 6.699c-.011-.011.03-.083.092-.083l.185-.085c-.125.113-.267.178-.277.168zM299.832 37.531c-7.259 5.801-10.865 8.737-18.025 14.676 4.554 7.372 6.811 11.067 11.284 18.48-6.005 2.979-8.996 4.493-14.958 7.566-2.081-4.287-3.128-6.428-5.23-10.707-.358 2.492-.536 3.737-.892 6.229-6.528.364-9.79.573-16.311 1.043.304-5.568.456-8.354.764-13.922-1.556-1.177-2.334-1.762-3.895-2.934 1.746-2.097 2.62-3.145 4.375-5.233.767-10.1 1.154-15.148 1.938-25.245 6.481-.235 9.723-.328 16.207-.461.176 4.67.264 7.004.438 11.674 4.245-4.29 6.38-6.422 10.667-10.663 5.48 3.767 8.206 5.666 13.638 9.497zm-43.55 20.365l-.087-2.17-1.768 1.326 1.855.844zm13.137-28.834c-.702 2.919-1.049 4.38-1.747 7.301l-.327-6.841c-1.355-.024-2.034-.036-3.389-.056-.54 2.526-.81 3.789-1.347 6.315l-.438-6.341-1.694-.02c-.866 14.275-1.72 28.55-2.562 42.826l1.662-.486c.526-2.53.788-3.795 1.316-6.324.285 2.637.429 3.956.712 6.592l1.568-.064c.643-2.959.966-4.439 1.613-7.397.711 4.844 1.368 7.271 1.986 7.28.123.002.427-.035.922-.11.49-.075 2.11-.035 2.31-.25 1-1.083.316-10.285.843-17.356s1.33-15.43 2.429-25.068c-1.542-.004-2.313-.004-3.857-.001zm-3.547 24.771l-.563.74-.646-.759.657-.741.552.76zm29.375-16.936c.07-1.623-6.575-7.019-8.052-6.825-3.007.395-8.204 7.108-10.717 11.484-2.514 4.376-3.785 9.072-3.833 14.07-.008.889.253 2.921.253 2.921.104.035 1.64-1.574 2.861-2.766 1.221-1.19 2.554-2.487 4.001-3.889 1.444-1.401 2.959-2.853 4.537-4.353s3.081-2.945 4.508-4.334c1.427-1.388 2.71-2.626 3.856-3.716 1.147-1.086 2.574-2.312 2.586-2.592zm-4.913 33.098c-4.097-6.421-6.162-9.624-10.322-16.01-2.872 3.347-4.3 5.026-7.149 8.396 2.471 5.12 3.698 7.684 6.138 12.815 1.186-.5 1.777-.749 2.964-1.246-1.186-2.268-1.78-3.402-2.972-5.667 1.897 1.985 2.846 2.979 4.734 4.972l2.232-1.257c-1.468-2.882-2.205-4.322-3.684-7.2 2.075 2.563 3.11 3.847 5.173 6.42 1.155-.492 1.732-.736 2.886-1.223zm1.381-34.831c.101.073-1.455 2.632-3.148 2.955-1.96.558-2.941.839-4.898 1.407.132-.495.437-1.055.915-1.677.479-.621 1.006-1.229 1.577-1.818.572-.59 1.127-1.109 1.668-1.562.538-.45.997-.751 1.376-.903l-.006.331c-.005.278-.169.785-.495 1.521-.325.737-.531 1.66-.496 1.688.031.025.551-.215 1.088-.499.534-.284 2.419-1.443 2.419-1.443zM345.248 44.36c-8.69-.059-13.036-.042-21.724.086l-.125 3.692c2.232.267 4.409.509 6.521.727 2.115.218 6.048.366 6.427.841.468.585-.338 4.474-.565 6.525-.228 2.054-.447 4.255-.655 6.6-4.964-.729-7.447-1.08-12.419-1.749l-.067 1.964c6.16 1.761 9.233 2.664 15.368 4.516-.487 1.9-.925 3.768-1.318 5.595-.395 1.829-.983 5.354-1.401 5.592-1.023.583-7.64-1.798-11.52-2.392-3.879-.594-7.651-1.002-11.309-1.225-1.166-.071-2.323-.126-3.487-.167-1.163-.041-2.327-.064-3.491-.075l.055-2.125c-1.449-.288-2.944-.536-4.482-.743-1.537-.207-3.091-.452-4.659-.732 1.083-4.963 1.627-7.444 2.722-12.403 2.912.297 4.368.452 7.278.77.401-6.06.603-9.09 1.008-15.149-1.239-.017-2.48.007-3.722.072-1.241.066-3.499.312-3.631.169-.423-.455.601-4.999.92-7.32.319-2.321.654-4.735 1.008-7.238 2.49.254 3.736.386 6.225.656l.078-2.989c2.491.302 4.98.559 7.473.773s4.98.465 7.47.75l1.468 1.524c2.904.214 5.864.486 8.885.814 3.02.328 5.979.65 8.879.966 1.121 4.669 1.681 7.005 2.79 11.675zm-38.887 16.557c-2.28-.125-3.419-.186-5.7-.298-.924 3.516-1.383 5.273-2.3 8.792 2.882 1.049 4.32 1.579 7.195 2.648.323-4.458.481-6.685.805-11.142zm1.001-18.223c-.318-4.178-.477-6.267-.799-10.445-1.244-.07-1.868-.104-3.113-.17-.49 4.134-.736 6.202-1.223 10.337 2.054.106 3.082.162 5.135.278zm13.916-11.09l-.264-.175c-.319.713-.635 1.401-.952 2.06-.318.66-.61 1.351-.867 2.067-.647-2.061-.972-3.091-1.622-5.151l-2.137-.141c-.246.247-.568.554-.964.922-.397.369-.719.703-.963 1.003-1.285-1.152-1.928-1.727-3.217-2.875-.383 14.183-.767 28.367-1.148 42.55l.697.041c.698-2.543 1.051-3.814 1.753-6.355l.676 6.974 2.012.044c.734-2.412 1.104-3.616 1.843-6.025.276 2.475.415 3.713.689 6.188 1.172-.617 1.757-.924 2.931-1.538.508-13.196 1.016-26.393 1.533-39.589zm-6.507 21.304l-1.258-2.207.54-.438 1.708 1.999-.99.646zm2.142-15.379c-.2.723-.869 1.282-2.004 1.682l.06-2.045 1.772.116.172.247zm5.641 28.188c-.846 3.279-1.267 4.919-2.106 8.201 5.413 1.16 8.115 1.758 13.515 2.989l.097-.15c-1.53-1.124-2.634-2.619-2.608-2.651.024-.031.55.108.951.272.4.163.804.262 1.211.295l1.311.03c-.379-.767-3.486-2.488-3.486-2.488.006-.024 2.32-.114 2.947-.508.628-.394 1.287-1.246 1.982-2.552-5.519-1.412-8.279-2.1-13.814-3.438zm20.201-23.24l-.78-2.513c-.768-.121-1.547-.27-2.338-.445-.792-.175-1.6-.324-2.424-.448 1.753-.291 2.63-.435 4.385-.717l-.109-1.74c-.651-.059-1.461-.158-2.435-.296-.971-.137-1.84-.29-2.604-.461 1.983-.65 2.977-.973 4.963-1.613l-.078-.244c-6.89-.62-10.338-.9-17.234-1.404l-.325 9.741c7.59-.016 11.386.014 18.979.14zm-7.938 14.737c-.753-.271-1.51-.571-2.258-.893l-2.255-.968c1.56-.224 2.34-.333 3.9-.551l.165-4.317c-4.3-.356-6.453-.523-10.756-.834l-.302 9.114c3.858.435 5.784.661 9.639 1.132l.097-.229c-1.491-.594-2.237-.888-3.73-1.477 2.199-.397 3.299-.593 5.5-.977zM403.011 72.987c-1.71.965-2.563 1.45-4.27 2.423l-.415 8.433c-.786-.115-2.471-.479-5.067-1.077-2.595-.597-6.181-1.467-10.759-2.576l-.243-2.938c-5.813-6.237-8.741-9.338-14.642-15.499-.115 6.535-.174 9.804-.292 16.339-.972.143-1.992.153-3.062.033-.451-.051-1.137-.178-2.062-.383-.922-.204-1.906-.413-2.941-.627-1.037-.214-2.047-.419-3.027-.624-.98-.205-1.756-.337-2.318-.395l-.68-.069c-.676-9.456-1.378-18.91-2.085-28.363-2.339-2.313-3.51-3.468-5.861-5.77 2.149-1.788 3.229-2.678 5.388-4.454l.571-6.829c6.683.391 10.023.613 16.701 1.113.203 3.329.305 4.994.505 8.323 6.088 6.433 9.106 9.668 15.102 16.181.762-8.438 1.143-12.658 1.908-21.095 6.751 1.482 10.122 2.252 16.853 3.845-1.058 9.792-2.123 19.582-3.168 29.375 1.549 1.851 2.321 2.778 3.864 4.634zm-52.248-28.116l.238-5.18c-1.318.849-1.977 1.275-3.292 2.128 1.224 1.219 1.834 1.829 3.054 3.052zm14.317 30.669l.293-5.475c.076-1.419.14-2.917.196-4.49.057-1.573.124-3.124.205-4.645l.363-6.768c.13-5.646.098-10.103-.104-13.362-.201-3.26-.59-5.537-1.158-6.826-1.306-.239-1.959-.359-3.266-.594-.591 2.75-.885 4.126-1.473 6.877-.354-2.609-.531-3.913-.887-6.522l-.771-.159c-.617 3.362-.925 5.043-1.538 8.406-.685-3.653-1.028-5.479-1.721-9.131l-1.317.323c.511 13.693.989 27.387 1.459 41.081l1.36-.01c.559-3.032.839-4.549 1.4-7.58.333 2.912.498 4.368.827 7.279.64-1.89.962-2.834 1.604-4.723.394 2.308.588 3.461.979 5.769 1.419.219 2.132.328 3.549.55zm-2.62-30.053c-.016.304-.487.771-.815.751-.411-.026-.913-.637-.897-.941.013-.253.563-.697.979-.656.355.035.749.542.733.846zm20.345 29.77l.999-16.088c-5.908-6.656-8.888-9.965-14.891-16.543l-.285 5.246c1.926 3.255 2.887 4.884 4.797 8.146-2.046-2.085-3.071-3.126-5.127-5.202l-.124 2.281c2.01 2.254 3.01 3.382 5.009 5.645-2.154-1.333-3.232-1.995-5.394-3.316l-.27 3.335c6.164 6.557 9.22 9.856 15.286 16.496zm16.991-33.745c-2.189-.936-3.285-1.402-5.479-2.326l-.521 7.885c-.482-3.16-.727-4.74-1.214-7.9-.823 2.517-1.233 3.775-2.053 6.294-.276-2.67-.418-4.005-.697-6.676-1.155-.374-1.732-.56-2.889-.93-.841 13.354-1.677 26.708-2.515 40.063l2.1.434.818-4.785c.542 2.185.812 3.277 1.351 5.463l2.089.596c.409-2.606.618-3.909 1.029-6.515.638 2.752.951 4.129 1.584 6.882 1.205.293 1.81.44 3.014.737 1.123-13.075 2.248-26.15 3.383-39.222zm-8.25 29.193l-.804.5-.722-.712.806-.577.72.789zm9.267 1.95l-2.072-2.144.392 2.965 1.68-.821zM101.43 131.398c-6.994 1.599-10.485 2.429-17.454 4.154l.096 2.901c-5.348 1.31-8.019 1.983-13.352 3.368l-.469-1.203c-1.671.695-2.505 1.044-4.173 1.747-.652-5.205-.979-7.806-1.632-13.011 2.12-.654 3.181-.979 5.304-1.621-.286-9.436-.566-18.871-.837-28.307 5.56-.777 8.342-1.148 13.909-1.847.401 10.669.605 16.005 1.019 26.674 5.799-1.595 8.703-2.371 14.521-3.879 1.231 4.408 1.846 6.614 3.068 11.024zm-31.531-1.993c-1.609.519-2.414.779-4.021 1.305l.218 1.59 2.58-.354c-.953.696-1.428 1.044-2.379 1.743l.269 1.376 2.483.208c-.935.557-1.403.835-2.337 1.395l.532 3.435 2.345-.446.851-.978c-.218-3.71-.326-5.564-.541-9.274zm11.407-29.67c-1.313.144-1.968.217-3.28.365-.339 2.61-.507 3.915-.842 6.525-.449-2.526-.675-3.789-1.126-6.315l-1.377.244c-.385 2.376-.576 3.565-.958 5.942l-.509-5.883-2.257.273c.394 12.897.805 25.794 1.227 38.691l1.338-.384c.174-2.287.262-3.43.438-5.717.731 2.066 1.097 3.099 1.826 5.166 1.413-.366 2.119-.548 3.533-.909.21-1.938.316-2.908.529-4.845l1.305 4.315 1.206-.281c-.368-12.396-.714-24.791-1.053-37.187zm-3.578 32.104l-.585.784-.914-.514.804-.754.695.484zm22.183-1.422l-1.084-2.875c-2.902.321-4.353.487-7.253.829 2.595-.915 3.893-1.368 6.493-2.266l-.234-1.183c-1.929.196-2.894.297-4.822.503 1.762-.856 2.645-1.282 4.41-2.129l-.214-.913c-5.5 1.412-8.246 2.137-13.729 3.627l.657 7.956c6.301-1.471 9.456-2.181 15.776-3.549zM144.565 124.506c.515 1.46.772 2.188 1.285 3.649-4.17 2.119-6.249 3.189-10.397 5.354-1.657-2.253-2.488-3.377-4.154-5.624-2.617.715-4.952 1.32-7.006 1.809-2.055.49-4.824.595-5.405 1.055-.383.303-.752 2.055-1.184 3.381-.433 1.327-1.006 2.896-1.716 4.704-4.768-.937-7.154-1.392-11.935-2.272-1.295-5.78-1.947-8.67-3.255-14.448 2.803-.814 4.205-1.217 7.013-2.011 2.567-8.227 3.867-12.334 6.497-20.538-1.104-2.276-1.658-3.414-2.768-5.687 2.617-1.333 3.928-1.995 6.554-3.309.604-1.513.906-2.27 1.513-3.782 4.849 1.908 7.269 2.876 12.094 4.839-.99 3.243-1.482 4.865-2.463 8.11 4.042 6.104 6.047 9.164 10.034 15.302 2.063-.236 3.095-.352 5.159-.577.052 4.017.079 6.026.134 10.045zm-37.892-1.6c-1.172.321-1.758.483-2.929.807l.989 6.076c.773-2.754 1.162-4.131 1.94-6.883zm22.214-29.044c.112-.811-.626-2.189-.928-2.221-.716-.076-4.469 3.701-4.469 3.701-.025-.012.336-1.417.662-2.166.325-.746.754-1.521 1.291-2.319l-2.517-.776c-1.276 2.034-1.914 3.052-3.184 5.091.229-.566.513-1.31.853-2.231.339-.922.765-1.976 1.275-3.162l-1.223-.425c-1.379 3.396-2.743 6.928-4.091 10.596-1.347 3.669-2.617 7.612-3.804 11.828-2.827 9.091-4.221 13.644-6.972 22.762l1.963.144c1.186-2.667 1.781-3.998 2.976-6.66l.15 2.174c.067.968.062 1.834-.015 2.601-.077.768-.198 1.482-.36 2.139 1.247-2.291 1.872-3.437 3.125-5.723-.131 2.682-.196 4.025-.325 6.708l1.286.549c.461-1.627 1.854-5.986 4.218-13.06 3.301-9.871 8.947-21.256 10.089-29.55zm-14.634 30.801c.046.677-.304 1.147-.784 1.136-.497-.012-.892-.408-.925-.892-.043-.627.354-1.109.791-1.065.473.047.895.484.918.821zm3.196-31.743c-1.454.663-2.18.996-3.632 1.664l1.625 2.922c.801-1.836 1.202-2.753 2.007-4.586zm12.74 32.107c-.68-.012-1.53-.039-2.551-.079-1.02-.04-2.214-.118-3.58-.231 1.875-.597 2.813-.891 4.691-1.479-.813-.482-4.063-1.015-4.063-1.015-.004-.033 1.899-1.024 1.857-1.701-.009-.145-.42-.25-1.235-.315-.816-.065-1.588-.05-2.315.046l-.389.051c-.782 1.712-1.402 3.282-1.858 4.707-.457 1.427-1.103 3.669-1.052 3.726.361.396 6.521-1.215 10.572-2.404l-.077-1.306zm-7.752-26.187c.033.532-.254.897-.659.889-.416-.008-.733-.317-.758-.705-.031-.482.281-.845.663-.818.403.028.736.344.754.634zm3.438 19.723c-.722-1.515-1.084-2.271-1.809-3.785-.575 1.39-.861 2.085-1.434 3.477 1.297.12 1.946.182 3.243.308zm17.465 7.9c-4.897-8.254-9.852-16.475-14.854-24.666-2.202 4.703-3.228 8.03-3.109 9.962.044.725.301 1.678.768 2.861.466 1.183 1.066 2.445 1.802 3.787.737 1.344 1.567 2.714 2.485 4.108.919 1.395 1.842 2.633 2.765 3.712.924 1.08 1.808 1.958 2.653 2.635.845.676 1.579.981 2.199.908-.958-1.493-1.438-2.24-2.399-3.731 1.763.724 2.642 1.088 4.401 1.819-.313-.936-.471-1.478-.479-1.623l.026-.951c.95 1.155 1.955 1.915 3.017 2.28l.725-1.101zm-7.187-5.373c.036.628-.365 1.067-.959 1.063-.512-.003-.883-.356-.911-.839-.039-.676.285-1.113.8-1.119.613-.007 1.04.364 1.07.895zm6.969-4.592l-2.576.288c1.051 2.564 1.575 3.849 2.621 6.416l-.045-6.704zM193.382 85.132c-.256 2.891-.415 5.685-.478 8.384s-.056 5.385.02 8.05l.063 2.153c.012.411-.039.683-.063.774-2.747 10.46-7.492 27.971-22.517 29.081-3.747.277-7.067.131-9.853-.582-2.788-.714-5.11-2.027-6.97-3.951-1.861-1.924-3.3-4.496-4.321-7.714s-1.657-7.187-1.897-11.907c-.039-.77-.069-1.953-.095-3.549-.025-1.594-.042-3.284-.048-5.063-.006-1.778-.02-3.453-.043-5.024-.024-1.57-.054-2.739-.093-3.509-.042-.82-.096-1.601-.162-2.342-.066-.739-.146-1.467-.237-2.181 6.398-1.193 9.602-1.765 16.016-2.855.143.709.275 1.481.395 2.321.12.839.278 1.804.239 2.645-.041.861-.164 2.049-.109 3.33l.029 4.631c.013.308.009.863-.012 1.662-.022.801-.041 1.654-.057 2.554-.017.902-.023 1.729-.02 2.474.004.745.009 1.195.016 1.349.323 7.49 2.529 11.044 6.623 10.7 1.328-.111 2.465-.81 3.416-2.095.95-1.284 1.712-3.223 2.284-5.813.572-2.59.94-5.873 1.103-9.844s.147-8.701-.052-14.189l-.054-1.46c6.523-1.07 9.789-1.579 16.328-2.542.376 1.314.581 2.584.616 3.815l-.067.697zm-2.289 2.522c-.027-.922-.083-1.818-.164-2.687-.082-.867-.191-1.657-.324-2.369l-1.602.098c-.302 1.201-.626 2.569-.972 4.106-.347 1.538-.715 3.27-1.104 5.195-.08-3.602-.119-5.402-.198-9.004-.275.224-.638.348-1.087.377-.337.022-.512-.196-.512-.196-.034-.009-.793 1.62-1.093 2.769-.3 1.151-.957 4.229-.957 4.229-.033.001-.512-2.292-.572-3.239-.06-.946-.101-1.753-.123-2.42l-.033-1c-1.41.313-2.116.47-3.524.787.092 1.022.186 2.096.282 3.22.095 1.125.166 2.3.208 3.531.325 9.283-.37 16.223-2.064 20.824-1.695 4.603-4.164 7.034-7.422 7.309-5.525.465-8.51-4.346-8.958-14.503-.027-.615-.043-1.619-.049-3.008-.006-1.39 0-2.86.015-4.406s.021-3.027.015-4.443c-.007-1.416-.023-2.431-.05-3.046l-.057-1.309c-.021-.462-.109-.852-.264-1.173-.155-.32-.484-.459-.989-.413-1.01.092-2.294.366-3.85.824.035 3.676.054 5.512.09 9.188-.931-3.373-1.399-5.06-2.336-8.431l-1.921.423c.505 3.444.755 5.167 1.257 8.611-1.002-3.364-1.504-5.045-2.514-8.408l-.739.46.096 1.925c.063 1.283.117 2.656.161 4.121.044 1.464.07 2.843.078 4.13.008 1.288.02 2.394.038 3.32.018.926.03 1.468.038 1.622.48 9.696 2.174 16.633 5.057 20.829 2.882 4.196 7.053 6.028 12.544 5.547 3.459-.303 6.444-.832 8.952-1.594 2.507-.763 4.606-1.843 6.297-3.25 1.691-1.405 3.041-3.195 4.051-5.37 1.01-2.174 1.778-4.823 2.289-7.935 1.555-9.48 2.225-17.908 2.01-25.241zm-16.693 33.627c.021.045-2.927 1.624-5.078 1.807-1.819.155-3.69-.915-3.69-.915.012-.017 1.477.256 2.746.147.606-.052 1.418-.172 2.436-.36 1.015-.187 3.586-.679 3.586-.679zm1.335 2.441c.008.016-3.388 1.735-5.811 1.94-1.982.168-4.022-1.041-4.022-1.041.041-.064 2.892.44 4.49.306 1.873-.157 5.343-1.205 5.343-1.205zM258.505 117.567c-1.713 1.307-2.567 1.961-4.274 3.276.067 3.653.1 5.48.166 9.134-.827 0-2.608-.125-5.353-.358-2.743-.233-6.541-.603-11.383-1.072l-.467-3.123c-6.5-5.788-9.773-8.658-16.365-14.349.357 7.045.536 10.569.889 17.614-1 .308-2.059.481-3.18.521-.472.017-1.195-.012-2.171-.084-.975-.073-2.013-.142-3.105-.207-1.094-.065-2.16-.129-3.194-.193-1.035-.064-1.848-.083-2.437-.055l-.708.034c-1.405-10.059-2.827-20.115-4.267-30.168-2.604-2.116-3.909-3.171-6.527-5.272 2.103-2.264 3.157-3.393 5.271-5.645l.091-7.436c6.989-.641 10.486-.931 17.484-1.451.456 3.547.683 5.32 1.135 8.868 6.815 5.954 10.197 8.957 16.914 15.013.183-9.194.276-13.791.465-22.983 7.149.529 10.723.825 17.862 1.479-.409 10.694-.808 21.389-1.206 32.083 1.75 1.746 2.621 2.621 4.36 4.374zm-56.457-21.972l-.136-5.608c-1.31 1.122-1.963 1.684-3.27 2.811 1.364 1.117 2.046 1.676 3.406 2.797zm17.151 30.706l-.095-5.934c-.025-1.537-.066-3.159-.124-4.861-.058-1.701-.099-3.377-.125-5.025l-.119-7.334c-.278-6.092-.639-10.875-1.089-14.351-.449-3.475-1.02-5.862-1.706-7.158-1.378-.051-2.068-.075-3.447-.121-.414 3.052-.62 4.577-1.029 7.629-.559-2.75-.839-4.123-1.402-6.872l-.817-.049c-.395 3.713-.592 5.569-.982 9.282-.983-3.819-1.477-5.728-2.468-9.545l-1.346.557c1.537 14.646 3.054 29.293 4.553 43.943l1.414-.228c.357-3.349.537-5.023.898-8.372.56 3.078.839 4.618 1.396 7.697.526-2.133.79-3.201 1.319-5.333.579 2.418.869 3.629 1.445 6.048 1.49.008 2.234.013 3.724.027zm-4.928-31.901c.006.33-.444.912-.792.937-.413.03-1-.538-1.007-.868-.005-.274.533-.845.975-.862.358-.014.818.463.824.793zm23.353 28.794l-.125-17.458c-6.636-6.224-9.98-9.312-16.715-15.436l.086 5.687c2.244 3.195 3.362 4.794 5.59 8-2.283-1.918-3.427-2.875-5.72-4.781l.038 2.472c2.258 2.105 3.383 3.162 5.63 5.278-2.341-1.092-3.512-1.635-5.859-2.714l-.035 3.629c6.894 6.076 10.316 9.141 17.11 15.323zm15.282-38.965c-2.352-.662-3.529-.989-5.884-1.637.009 3.424.014 5.137.022 8.561-.73-3.322-1.098-4.983-1.833-8.305-.679 2.836-1.016 4.254-1.69 7.092-.481-2.828-.724-4.241-1.208-7.069-1.232-.219-1.848-.329-3.081-.545.091 14.492.182 28.983.271 43.475l2.216.136.509-5.275c.722 2.264 1.083 3.395 1.8 5.66l2.218.311.6-7.165c.861 2.859 1.291 4.289 2.146 7.148 1.277.125 1.916.19 3.192.319.238-14.236.478-28.471.722-42.706zm-6.511 32.69l-.8.663-.805-.651.8-.747.805.735zm9.796.639l-2.314-1.979.621 3.126 1.693-1.147zM298.65 118.589c-.03 1.312-.652 2.462-1.859 3.449-1.207.988-2.658 1.83-4.358 2.529-1.701.701-3.517 1.222-5.442 1.568-1.928.345-3.601.499-5.018.458-3.013-.086-5.74-.738-8.181-1.966-2.441-1.228-4.5-2.889-6.175-4.997-1.675-2.106-2.965-4.632-3.872-7.574-.906-2.94-1.354-6.167-1.337-9.676.017-3.454.481-6.712 1.399-9.772.918-3.059 2.198-5.729 3.843-8.005s3.61-4.063 5.89-5.355 4.817-1.899 7.6-1.817c3.812.113 11.411 2.605 11.994 4.288.233.673-1.034 3.642-1.375 5.734-.341 2.094-.58 6.836-.58 6.836-.342.175-5.032-2.814-7.074-2.879-3.728-.12-5.625 2.575-5.693 8.051-.018 1.425.127 2.963.436 4.615.308 1.652.764 3.2 1.37 4.639.608 1.442 1.336 2.639 2.185 3.595.849.956 1.777 1.452 2.789 1.484 2.021.065 5.257-5.292 5.724-5.385.143-.029 1.231 1.227 2.103 2.301.873 1.076 1.729 2.165 2.568 3.269s1.56 2.108 2.164 3.01c.603.904.903 1.436.899 1.6zm-3.042.604c.058.058-.198.212-.766.462-.569.25-1.246.536-2.021.861-.776.325-1.554.639-2.329.938-.775.299-1.702.676-1.702.676-.002-.004 4.01-4.939 4.01-4.939-.05-.054-2.443 1.109-3.369 1.513-.929.404-1.807.565-2.635.482l-1.333-.125c.654-.197 1.3-.534 1.931-1.005.632-.472 1.206-.997 1.722-1.582.514-.583.928-1.199 1.237-1.844.31-.644.468-1.297.48-1.954l.006-.245c-2.008 2.388-3.961 3.552-5.861 3.491-1.308-.042-2.501-.544-3.587-1.506s-2.038-2.208-2.852-3.735c-.813-1.526-1.451-3.214-1.907-5.061-.456-1.846-.674-3.673-.653-5.48.04-3.452.833-6.105 2.389-7.954s3.87-2.73 6.938-2.627c1.746.058 4.683.825 4.683.825s-.82-.511-1.383-.997c-.563-.485-1.188-1.017-1.869-1.586-.683-.571-1.353-1.115-2.008-1.63-.656-.514-1.795-1.044-1.795-1.044.002-.024 1.121-.21 1.18-.208.363.012.828.123 1.397.334.568.211 1.154.437 1.753.677.598.24 1.139.481 1.615.717.479.236 1.167.456 1.167.456.069-.116-5.165-4.868-5.165-4.868.003-.018.392-.07.633-.062l.455.016c.239.008.559.073.949.196.389.123.792.248 1.212.373l1.265.375c.418.125.748.193.989.202.122.005.46-.189.46-.229 0-.951-6.157-3.923-9.362-4.02-2.298-.069-4.44.545-6.417 1.84-1.978 1.295-3.684 3.044-5.118 5.237-1.434 2.193-2.567 4.711-3.397 7.549-.83 2.839-1.252 5.768-1.271 8.782-.021 3.289.425 6.271 1.328 8.939.904 2.672 2.198 4.963 3.871 6.883 1.672 1.918 3.702 3.412 6.088 4.48 2.386 1.07 5.055 1.646 8.015 1.738.888.028 1.877-.089 2.978-.353 1.099-.263 2.188-.623 3.263-1.075 1.075-.453 2.063-1 2.965-1.649.902-.647 1.596-1.344 2.089-2.09l-.268-.174zm-20.185-1.721c-.534-.012-1.095-.272-1.684-.777-.587-.504-1.118-1.103-1.587-1.797-.469-.694-.862-1.441-1.182-2.242-.32-.8-.476-1.53-.47-2.188l.278-1.31c1.221 3.585 2.917 6.33 5.093 8.242l-.448.072zm1.989-2.256c.009.039-.271.156-.627.148-.478-.011-.934-.226-1.375-.647-.44-.42-.823-.937-1.142-1.545-.319-.608-.583-1.26-.784-1.948-.201-.688-.3-1.307-.295-1.855.008-.767.288-1.803.288-1.803.165.006 1.475 4.183 1.998 5.262.525 1.08 1.881 2.151 1.937 2.388zm11.111 7.069c-.011-.012.028-.081.089-.079l.178-.076c-.118.106-.257.165-.267.155zM345.794 118.43c-1.755.378-2.632.57-4.385.957l-.525 12.167c-5.863-.104-8.798-.133-14.66-.148l.504-13.936c-2.988.066-4.481.104-7.469.192-.753 4.997-1.127 7.497-1.873 12.496-5.902.131-8.854.219-14.753.438.156-6.352.232-9.527.389-15.878l-2.518-.044c-.327-5.289-.491-7.933-.824-13.222 1.117.053 1.677.08 2.794.136l.973-.511c.823-7.852 1.237-11.775 2.072-19.624 6.301.658 9.448 1.012 15.739 1.768l-.604 18.327c2.827.193 4.24.295 7.066.508.768-6.682 1.154-10.021 1.931-16.701 5.873.457 8.808.706 14.676 1.248-.311 7.061-.468 10.592-.778 17.652l1.919.176c.132 5.599.198 8.399.326 13.999zm-42.374-5.692c.093-3.734.139-5.601.231-9.335l-2.177-.349c.012 3.932.02 5.897.03 9.829l1.916-.145zm13.013-27.525c-.419 2.145-.624 3.216-1.041 5.362-.282-2.286-.427-3.429-.711-5.715l-1.928-.358c-.675 2.643-1.012 3.964-1.683 6.609-.134-2.724-.202-4.084-.338-6.809-1.402-.274-2.103-.411-3.506-.681-.918 14.862-1.827 29.726-2.725 44.589l1.986-.135.671-5.635c.501 1.944.752 2.917 1.25 4.861l2.668.39c.354-2.727.528-4.089.885-6.815.309 2.51.463 3.765.77 6.275 1.274.108 1.91.164 3.184.276.755-7.565 1.372-14.715 1.847-21.445.475-6.729.821-13.495 1.037-20.296l-2.366-.473zm-4.638 23.433l-.794.433-.684-.519.714-.597.764.683zm15.461 6.228c-1.981-.947-2.974-1.418-4.96-2.355 2.019-.019 3.028-.025 5.047-.034l.137-3.822c-1.998-.661-2.998-.989-4.999-1.641 2.03-.209 3.047-.311 5.078-.509l.094-2.548c-2.967-.096-4.453-.139-7.42-.212l-.368 11.314c2.955-.089 4.434-.128 7.391-.193zm12.348 14.253c.586-13.759 1.172-27.518 1.759-41.277-1.158-.104-1.739-.156-2.898-.256-.515 2.223-.77 3.336-1.282 5.56-.328-2.295-.493-3.444-.823-5.739l-1.933-.162-.233 5.89c-1.026-2.512-1.541-3.767-2.574-6.277-.994 13.921-1.982 27.843-2.966 41.766.983-3.214 1.478-4.821 2.468-8.033.456 3.485.684 5.229 1.135 8.713l1.043-4.547c.343 1.848.513 2.772.854 4.62 2.179-.11 3.27-.161 5.45-.258zm-3.484-18.42l-.715.419-.664-.852.698-.023.681.456zm7.862 5.401c-.085-3.552-.126-5.328-.214-8.88l-1.218-.11c-.267 3.712-.401 5.567-.667 9.279l2.099-.289zM393.127 105.188c-8.094-.425-12.142-.595-20.237-.853l-.205 3.518c2.072.353 4.09.678 6.054.978 1.965.301 5.614.603 5.968 1.079.438.591-.425 4.254-.687 6.205-.262 1.951-.515 4.039-.768 6.267-4.606-.909-6.914-1.35-11.529-2.206l-.108 1.871c5.696 1.95 8.538 2.945 14.209 4.976-.5 1.792-.952 3.557-1.362 5.284-.411 1.729-1.062 5.074-1.442 5.273-.945.495-7.074-2.044-10.674-2.78-3.601-.736-7.107-1.29-10.512-1.665-1.08-.119-2.164-.225-3.245-.315-1.084-.091-2.167-.167-3.25-.228l.104-2.025c-1.346-.339-2.732-.644-4.16-.91-1.429-.267-2.872-.571-4.326-.91 1.131-4.688 1.698-7.031 2.839-11.714 2.707.415 4.063.628 6.768 1.062.521-5.766.78-8.647 1.304-14.412-1.153-.071-2.311-.105-3.469-.098-1.156.007-3.258.145-3.385-.002-.399-.461.68-4.744 1.033-6.944.354-2.199.728-4.49 1.119-6.863 2.313.355 3.469.536 5.781.904l.146-2.849c2.311.399 4.621.756 6.938 1.071 2.316.315 4.634.663 6.945 1.043l1.328 1.519c2.698.331 5.452.718 8.257 1.161l8.247 1.303c.933 4.503 1.398 6.756 2.319 11.26zm-36.626 14.106c-2.122-.222-3.186-.331-5.309-.541-.947 3.313-1.418 4.971-2.359 8.288 2.66 1.132 3.988 1.703 6.642 2.852.409-4.24.615-6.36 1.026-10.599zm1.372-17.346c-.194-4.001-.292-6.001-.49-10.002-1.158-.122-1.739-.183-2.897-.302-.558 3.923-.835 5.885-1.39 9.81 1.911.193 2.867.292 4.777.494zm13.235-9.967l-.239-.178c-.315.667-.63 1.307-.942 1.922-.313.617-.597 1.263-.854 1.936-.554-1.995-.833-2.993-1.39-4.987l-1.982-.229c-.235.226-.54.504-.919.838-.38.334-.688.64-.923.915-1.17-1.156-1.756-1.734-2.93-2.887-.706 13.518-1.411 27.037-2.107 40.555l.651.07c.714-2.396 1.073-3.593 1.79-5.987.187 2.674.277 4.011.461 6.685l1.869.131c.744-2.269 1.116-3.403 1.864-5.67l.489 5.936c1.107-.537 1.662-.805 2.771-1.338.793-12.571 1.592-25.141 2.391-37.712zm-6.578 20.043l-1.122-2.162.515-.394 1.545 1.984-.938.572zm2.366-14.582c-.202.681-.842 1.187-1.909 1.518l.107-1.949 1.652.188.15.243zm4.572 27.149c-.868 3.092-1.299 4.638-2.162 7.733 5.019 1.344 7.521 2.033 12.523 3.441l.09-.14c-1.397-1.138-2.385-2.618-2.363-2.643.023-.027.51.13.878.302.369.173.743.285 1.122.334l1.222.084c-.335-.747-3.192-2.524-3.192-2.524.007-.023 2.166-.008 2.762-.357.593-.349 1.231-1.132 1.91-2.35-5.108-1.585-7.666-2.361-12.79-3.88zm19.382-21.308l-.669-2.43c-.711-.148-1.429-.323-2.165-.524-.732-.201-1.483-.377-2.249-.531 1.641-.202 2.461-.303 4.103-.498l-.058-1.665c-.603-.083-1.357-.213-2.26-.386s-1.711-.357-2.417-.553c1.863-.535 2.795-.799 4.661-1.325l-.068-.236c-6.401-.886-9.605-1.302-16.018-2.084l-.538 9.282c7.072.316 10.608.506 17.678.95zm-7.75 13.727c-.696-.292-1.39-.61-2.083-.952l-2.078-1.021c1.459-.146 2.188-.217 3.647-.357l.259-4.112c-3.998-.525-5.996-.777-9.998-1.263l-.505 8.683c3.584.583 5.373.883 8.953 1.499l.097-.213c-1.375-.631-2.062-.946-3.438-1.572 2.057-.283 3.086-.421 5.146-.692zM425.672 148.694c-6.047-7.517-9.099-11.255-15.261-18.688-.378 2.893-.568 4.338-.944 7.231-5.859-.679-8.788-.995-14.653-1.585.942-4.689 1.414-7.034 2.363-11.721-1.208-4.378-1.816-6.566-3.04-10.942 2.124-.15 3.188-.223 5.313-.362.521-2.506.782-3.758 1.305-6.263-2.602-.276-3.903-.411-6.507-.67.131-1.92.233-3.821.31-5.703.076-1.881-.021-5.484.318-5.774.363-.311 3.132.253 4.408.323 1.275.071 2.388.061 3.338-.033l.734-2.584c5.223.795 7.834 1.209 13.049 2.073l-.16 2.032c2.374.44 4.508 1.216 6.408 2.324 1.897 1.107 3.477 2.439 4.731 3.987 1.256 1.549 2.18 3.278 2.772 5.183s.801 3.886.624 5.937c-.221 2.565-1.025 4.8-2.405 6.706-1.382 1.908-3.264 3.172-5.643 3.801 5.468 7.791 8.175 11.703 13.533 19.558-4.247 2.043-6.366 3.077-10.593 5.17zm-29.377-53.492l-.319 3.503c1.37.567 2.055.853 3.423 1.424-1.418.13-2.127.197-3.544.333l-.021 1.416c1.301.188 1.951.283 3.251.476-1.338.341-2.005.513-3.342.859l-.105 1.545c2.203.205 3.304.311 5.506.528.241-1.951.476-3.761.699-5.43.224-1.669.381-3.09.465-4.26-2.405-.165-3.609-.243-6.013-.394zm2.772 18.434c-1.374.08-2.062.123-3.436.208.794 2.897 1.191 4.345 1.979 7.242l.389-.014c.427-2.975.64-4.462 1.068-7.436zm15.032-18.245l-2.097-.34c-.683 2.36-1.024 3.542-1.704 5.903l.451-5.961-2.307-.651c-.69 2.504-1.033 3.756-1.721 6.262l-.439-6.812-1.621-.322c-2.668 13.723-5.313 27.45-7.929 41.184 1.103.076 1.651.114 2.753.193.565-2.3.85-3.45 1.417-5.749l-.015 5.533 2.207.335c.567-1.844.85-2.766 1.419-4.608l-.075 4.176c1.354.436 2.029.654 3.382 1.095 2.075-13.416 4.159-26.83 6.279-40.238zm-7.372 21.895l-.414.36-.785-.973.496-.35.703.963zm2.193-14.704c-.157.022-.266.076-.324.161-.059.086-.141.186-.168.187-.053.001-.2-.152-.294-.26-.095-.109-.195-.195-.294-.258l.638-.183.442.353zm19.992 9.902c.155-1.819-.036-3.536-.577-5.146s-1.373-3.075-2.49-4.382c-1.119-1.309-2.468-2.408-4.043-3.293-1.575-.885-3.292-1.484-5.152-1.792l-.931-.153-1.013 7.927c2.162.355 3.893 1.062 5.188 2.108 1.296 1.049 1.88 2.32 1.758 3.814-.103 1.26-.765 2.199-1.982 2.82s-3.425 1.09-6.613 1.423l-.354 1.575c4.313.512 7.019.337 8.132-.562l.068.082c-.1 1.215-2.816 1.806-8.152 1.837l-.263 1.378c1.948.222 3.609.342 4.98.358 1.37.016 3.639-.343 3.639-.343.037.06-3.984 1.299-9.382.854l-.054 1.696c1.314.241 1.972.361 3.285.606 1.832.35 3.55.32 5.162-.093 1.61-.411 3.041-1.102 4.285-2.067 1.245-.965 2.273-2.195 3.074-3.685.802-1.488 1.28-3.143 1.435-4.962zm4.571 30.309c-4.874-7.181-7.335-10.76-12.3-17.888-2.353.307-5.59.116-9.72-.55l-.277 3.576c6.178 7.298 9.238 10.968 15.303 18.352l2.075-.906c-.639-1.138-.96-1.706-1.601-2.842.989 1.028 1.485 1.542 2.472 2.572l1.527-.788c-.868-.982-1.302-1.473-2.172-2.453 1.179.61 1.768.917 2.945 1.53l1.748-.603zm-14.139-31.619c.158-1.961-1.431-3.23-4.772-3.778-.633 2.509-.95 3.764-1.58 6.273 2.104.295 3.672.191 4.699-.323 1.024-.513 1.578-1.237 1.653-2.172z"/></g><g><defs><path id="a" d="M33.136 0h423v184h-423z"/></defs><clipPath><use xlink:href="#a" overflow="visible"/></clipPath></g><g><path fill="none" d="M42.595 79.056l.013.002-.003.003zM40.916 98.372l3.262.648.892-.451.112.163c1.618-1.036 6.618-4.284 7.555-5.464 1.253-1.747.928-3.664.658-4.838 0 0-1.351-3.524-3.975-4.024-2.623-.5-4.7.718-4.7.718l6.367-4.328.09 2.927s2.652 3.982 2.619 4.675c.279 1.211.424 3.182-.884 5.003-.491.619-2.008 1.752-3.601 2.857-1.56 1.082-3.191 2.137-4.003 2.656l.106.153-4.031 3.065-.138-.44c0-.001 1.176-.717-.329-3.32zM39.842 80.04c-.197-.319-.249-.563-.153-.725.227-.388 1.291-.342 1.8-.319l1.082.09-2.347 1.675-.385-.72.003-.001zM39.056 82.427c.678-.469 1.374-.61 1.961-.395.424.155.752.498.858.892.285 1.069-.741 1.705-.95 1.822-.098.053-10.025 5.448-11.405 6.174-.21.11-.41.151-.604.123l8.547-5.703-.846-1.22 2.439-1.693zM10.988 92.941l.716-.496c.664.9 1.778 2.417 2.358 3.254.862 1.242 1.559.96 1.559.96s.163-1.083-.308-1.761l-2.323-3.347.588-.408 3.464 4.992-2.588 1.801-3.466-4.995zM44.545 133.795c.164.226.339.578.392 1.008.084.675-.159 1.216-.721 1.608h-.001c-.704.49-1.448.11-1.659-.018-.332-.202-.567-.48-.664-.759l2.653-1.839z"/><circle cx="38.228" cy="100.238" r="1.004" fill="none"/><path d="M41.186 90.177s.667-1.692 3.869-3.646c2.022-1.234 6.374-1.732 7.753 1.503 1.384 3.242-.817 5.472-.817 5.472l-6.713 4.784-.13-.061s2.043-1.667 3.295-2.805c-4.663.262-6.859-2.555-7.424-5.24l.167-.007zM22.708 90.379l-2.958-4.262.363-.251 2.957 4.262.127.569zM16.438 89.156l.495-.344c.67.908 1.74 2.367 2.306 3.182.862 1.243 1.559.961 1.559.961s.163-1.083-.308-1.762l-2.272-3.273.719-.5 3.46 4.987-2.497 1.739-3.462-4.99zM13.758 91.018l.717-.499c.67.909 1.739 2.367 2.304 3.181.862 1.243 1.559.96 1.559.96s.163-1.083-.307-1.761l-2.27-3.272.496-.345 3.463 4.989-2.498 1.739-3.464-4.992zM20.021 92.303l-2.957-4.261.362-.252 2.956 4.262.128.57zM17.435 94.21l-2.957-4.261.361-.251 2.957 4.261.128.57zM19.118 87.295l.646-.449c.67.908 1.741 2.369 2.306 3.183.863 1.243 1.559.96 1.559.96s.163-1.083-.308-1.761l-2.272-3.275.538-.374 3.459 4.985-2.467 1.718-3.461-4.987zM74.504 56.696c.609.39 1.143 1.065 1.572 1.784-2.288 1.586-13.26 9.182-15.114 10.465l-1.247-1.803 14.789-10.446zM64.774 52.4l2.651-1.823.371.509-2.65 1.849-.372-.535zM39.414 79.203c-.127.215-.08.558.112.913l-14.232 9.874-.068.449-3.459-4.985.255-.179s42.558-29.403 48.206-33.798c.878.682 1.523 1.311 2.007 1.881l-12.201 8.466c-1.596 1.107-1.135 3.509-.508 4.413l-17.972 12.47c-.813-.017-1.89.067-2.14.496zM46.727 95.846c-1.98 1.776-2.859 2.486-2.859 2.486s-3.752-.007-5.041-2.393c-1.514-2.806-.19-4.708.217-5.237l1.443-.078c.215 1.163 1.825 4.839 6.24 5.222zM9.509 99.878l-2.958-4.262.362-.251 2.957 4.262.128.57zM4.862 105.448c.82 1.701 2.111 3.481 3.096 3.988 2.033-1.057 5.719-1.556 9.291.504 1.265.729 3.189 3.053 4.317 5.707 1.127 2.653 7.251 18.618 7.754 19.92.502 1.303 1.89 3.839 3.278 3.589 1.237-.222 11.992-8.267 14.332-10.024l-8.65-20.844c-1.132-2.918.553-5.828 1.009-6.457 1.328-1.831.614-2.523-.152-3.241s-2.48-2.016-3.133-4.796c-.683-2.913 1.699-6.145 2.181-6.48.481-.334 8.456-5.755 10.512-7.293 0 0 .714-2.638 2.25-3.703 1.49-1.035 6.709-4.593 9.673-6.707l-1.444-2.088-16.536 11.68-6.234 4.326-2.242 1.595.201.289-1.355.941-.189-.272-3.226 2.296.162.233-.542.376s-.111-.078-.283-.135l-.965.687.68.98 6.564-4.49-.53-.836 1.175-.815-.125-.181 3.072-2.132c.799-.554 1.638-.712 2.362-.445.565.207.988.652 1.131 1.191.256.961-.304 1.741-.938 2.181l-.224.14c-.101.055-10.03 5.45-11.413 6.178-.389.205-.776.238-1.15.098-.686-.256-1.12-1.033-1.287-1.384l-.02.014-22.402 15.41zm32.214-4.411c-.442-.636-.284-1.511.353-1.952.637-.442 1.51-.284 1.952.352.441.638.284 1.511-.353 1.953-.637.44-1.511.283-1.952-.353zm6.915 29.528l-14.647-35.313-.203.084 7.138 17.263-.029-.045c-.438-.632-1-1.129-1.63-1.481l-6.334-15.214-.204.085 6.235 14.974c-.415-.196-.854-.333-1.303-.407l-5.814-13.955-.237.119 5.763 13.797c-.326-.035-.657-.037-.986-.006l-5.438-13.23-.203.083 5.414 13.173c-.326.046-.649.125-.965.239l-5.219-12.692-.204.084 5.214 12.689c-.308.126-.606.287-.892.481l-5.186-12.513-.203.083 5.201 12.564c-.262.197-.5.417-.712.653l-5.189-12.674-.204.084 5.233 12.778c-.269.333-.489.695-.66 1.077l-5.417-13.212-.204.083 5.501 13.423c-.208.561-.314 1.158-.31 1.757l-5.996-14.564-.203.083 6.262 15.231c.113.702.38 1.39.812 2.011l.034.047 5.758 14.005c-.346.063-.661.174-.954.311l-12.726-30.982-.203.083 12.731 30.997c-.31.166-.591.354-.848.543l-12.606-30.98-.205.083 12.628 31.033c-.309.237-.583.458-.829.612l-12.596-30.958c.318-.697.858-1.379 1.586-1.885 1.465-1.017 7.665-5.586 8.514-5.908.848-.32 3.403-.877 4.569 1.826 2.455 5.691 11.973 29.418 12.8 30.923.445.81.097 1.271-.768 1.91l-14.43-34.452-.204.085 14.421 34.521-.826.575-.027.019zm-14.331-18.886c2.027-1.407 4.821-.902 6.228 1.125s.902 4.822-1.125 6.229c-2.028 1.407-4.822.902-6.229-1.125-1.407-2.029-.902-4.823 1.126-6.229zm13.356 19.559l-6.069-14.578c.198-.721.231-1.483.09-2.228l6.734 16.284-.755.522zm-1.06.733l-5.737-13.769c.266-.377.476-.786.626-1.215l5.986 14.379-.875.605zm-1.073.739l-5.567-13.546c.273-.223.518-.47.731-.737l5.713 13.679-.877.604zm-1.01.699l-5.591-13.596c.251-.116.496-.254.731-.418l.122-.089 5.553 13.512.103-.042-.918.633zm-.981.676l-5.761-13.903c.321-.06.636-.152.945-.279l5.604 13.639-.788.543zm-1.041.718l-5.956-14.545c.334.022.67.01 1.004-.037l5.796 14-.844.582zm-2.302-2.382l-5.119-12.485c.391.152.802.252 1.219.3l5.697 13.914c-.375-.57-.99-1.333-1.797-1.729zm-1.343-.247l-5.51-13.384c.422.433.912.774 1.441 1.02l5.12 12.488c-.322-.115-.669-.168-1.041-.126l-.01.002zm-2.954 3.092l4.185-.528c.745.135.913.764.036 1.112l-4.161.58c-.841-.12-.895-.797-.06-1.164zm-13.15-30.334c-.142-.483-.088-1.083.135-1.691l12.522 30.777c-.248.12-.468.149-.675.016-.849-.55-11.656-27.99-11.982-29.102zM31.843 135.828l-.025-.219 3.018-.35.025.219zM12.594 96.671l-2.269-3.269.482-.335 3.465 4.994-2.525 1.758-3.467-4.997.76-.529c.67.909 1.738 2.364 2.302 3.179.862 1.243 1.559.959 1.559.959s.163-1.082-.307-1.76zM5.749 96.582l.62-.431c.642.869 1.863 2.529 2.481 3.42.862 1.242 1.558.96 1.558.96s.163-1.084-.307-1.761l-2.44-3.517.439-.305 3.468 4.997-2.351 1.636-3.468-4.999zM3.135 98.468l.044-.102.524-.365c.643.87 1.862 2.528 2.48 3.418.862 1.242 1.559.96 1.559.96s.163-1.083-.307-1.761l-2.439-3.515.572-.397 3.469 4.999-4.931 3.432c-.831-1.624-1.555-5.137-.971-6.669zM6.926 101.67l-2.958-4.262.363-.251 2.957 4.261.127.571zM12.541 97.607l.126.569-.488-.319-2.957-4.262.361-.251zM31.247 115.156l-.613-2.036 1.692 1.287 1.746-1.212-.701 2.007 1.693 1.287-2.125-.046-.701 2.007-.613-2.036-2.125-.046zM8.742 92.515l-.484-.828 1.056-.733.563.683-1.12.867zM14.844 96.008l-2.957-4.262.362-.251 2.958 4.262.126.57zM7.436 90.278l.84-.584.354.431-.914.633zM2.314 101.722l-.029.021-.031-.067c-.055-.124-.117-.265-.257-.329-.138-.065-.284-.024-.413.012l-.074.02-.006-.073c-.008-.128-.019-.288-.129-.398-.106-.108-.257-.12-.39-.13l-.082-.006.022-.08c.037-.128.079-.273.015-.411-.065-.14-.205-.204-.329-.26l-.066-.031.045-.063c.079-.108.168-.23.156-.383-.013-.152-.122-.259-.219-.354l-.054-.057.063-.043c.113-.077.238-.161.279-.309.041-.147-.026-.285-.084-.407l-.032-.068.072-.02c.133-.032.281-.068.37-.194.088-.125.073-.276.06-.409l-.006-.077.072.007c.128.014.288.031.416-.058.128-.088.168-.245.201-.369l.019-.072.07.034c.121.059.256.126.403.086.149-.039.236-.165.312-.277l.043-.061.054.055c.084.088.181.182.311.21-.241.345-.434.698-.577 1.072-.317.83-.358 2.154-.205 3.489z" fill="none"/><path d="M29.141 95.336l7.138 17.263-.029-.045c-.438-.632-1-1.129-1.63-1.481l-6.334-15.214-.204.085 6.235 14.974c-.415-.196-.854-.333-1.303-.407l-5.814-13.955-.237.119 5.763 13.797c-.326-.035-.657-.037-.986-.006l-5.438-13.23-.203.083 5.414 13.173c-.326.046-.649.125-.965.239l-5.219-12.692-.204.084 5.214 12.689c-.308.126-.606.287-.892.481l-5.186-12.513-.203.083 5.201 12.564c-.262.197-.5.417-.712.653l-5.189-12.674-.204.084 5.233 12.778c-.269.333-.489.695-.66 1.077l-5.417-13.212-.204.083 5.501 13.423c-.208.561-.314 1.158-.31 1.757l-5.996-14.564-.203.083 6.262 15.231c.113.702.38 1.39.812 2.011l.034.047 5.758 14.005c-.346.063-.661.174-.954.311l-12.726-30.982-.203.083 12.731 30.997c-.31.166-.591.354-.848.543l-12.606-30.98-.205.083 12.628 31.033c-.309.237-.583.458-.829.612l-12.596-30.958c.318-.697.858-1.379 1.586-1.885 1.465-1.017 7.665-5.586 8.514-5.908.848-.32 3.403-.877 4.569 1.826 2.455 5.691 11.973 29.418 12.8 30.923.445.81.097 1.271-.768 1.91l-14.43-34.452-.204.085 14.421 34.521-.826.575-.028.019-14.646-35.313-.203.084zM32.899 120.221l5.796 14-.845.582-5.956-14.545c.335.022.671.01 1.005-.037zM30.43 119.936c.391.152.802.252 1.219.3l5.697 13.914c-.375-.569-.99-1.332-1.797-1.729l-5.119-12.485zM31.252 135.266c-.835.367-.782 1.044.06 1.164l4.161-.58c.877-.348.709-.977-.036-1.112l-4.185.528zm.596.562l-.026-.218 3.018-.353.025.219-3.017.352zM30.136 119.81l5.12 12.488c-.322-.115-.669-.168-1.041-.126l-.009.002-5.51-13.384c.422.433.911.774 1.44 1.02zM18.237 103.241l12.522 30.777c-.248.12-.468.149-.675.016-.849-.549-11.656-27.99-11.982-29.102-.142-.484-.088-1.083.135-1.691zM3.787 105.975l.55-.102c.581 1.155 1.902 3.339 3.238 4.098.39.337 1.286 1.048 2.184 1.33 7.59-2.053 10.432 3.361 10.958 4.602.527 1.241 5.264 14.132 7.811 20.167 2.358 5.583 4.495 4.09 4.495 4.09l.508-.36.914 1.003 6.164-4.277c.25.463.644.878 1.15 1.185 1.082.655 2.359.643 3.335-.034l.002-.001c1.042-.724 1.538-1.86 1.362-3.117-.084-.611-.323-1.19-.647-1.642l5.187-3.599-.789-1.46-1.021.719h.001s-7.762-17.941-8.619-20.268c-.769-2.09.606-4.593 1.224-5.391 0 0 7.99-5.945 9.639-7.089 1.649-1.144 2.203-2.15 2.913-4.33.964-2.958-2.398-7.807-2.398-7.807s.059-2.183.277-3.282l9.036-6.27c1.256-.873 1.383-1.665 1.007-2.555l14.974-10.364c.867-.672.612-1.714-.104-2.851-.755-1.198-1.726-2.223-2.226-2.267.561-.824-.45-2.392-1.673-3.887-1.371-1.675-2.994-2.172-2.994-2.172l-.563.391c-.215-.086-.447-.157-.679-.187l-.858.597-.743-1.07-3.547 2.46.749 1.08c-13.778 9.625-50.958 35.675-54.369 38.065l-1.876-2.277-1.508 1.046 1.528 2.617c-2.205 1.532-3.761 2.636-4.759 3.74-.137 0-.256.084-.354.153l-.089.061-.076-.075c-.102-.105-.228-.237-.411-.222-.182.015-.284.165-.366.285l-.063.088-.096-.044c-.133-.064-.297-.146-.465-.068-.162.076-.208.25-.245.391l-.031.108-.112-.009c-.145-.015-.323-.035-.452.092-.131.13-.113.312-.099.458l.009.106-.105.03c-.142.034-.317.079-.396.243-.077.166.002.33.065.462l.044.098-.088.062c-.122.083-.271.184-.289.366-.017.181.113.308.217.41l.076.077-.061.088c-.086.119-.194.267-.147.443.046.176.211.25.343.311l.099.047-.027.101c-.041.142-.092.318.014.47.105.152.288.166.435.177l.105.01.01.11c.01.146.023.325.17.43.15.105.325.056.467.017l.104-.026.046.098c.059.133.133.299.309.347.078.021.149.012.216-.012.24 1.621.758 3.175 1.41 3.786zm-.692-8.814c-.241.345-.434.698-.577 1.072-.316.831-.357 2.155-.204 3.489l-.029.021-.031-.067c-.055-.124-.117-.265-.257-.329-.138-.065-.284-.024-.413.012l-.074.02-.006-.073c-.008-.128-.019-.288-.129-.398-.106-.108-.257-.12-.39-.13l-.082-.006.022-.08c.037-.128.079-.273.015-.411-.065-.14-.205-.204-.329-.26l-.066-.031.045-.063c.079-.108.168-.23.156-.383-.013-.152-.122-.259-.219-.354l-.054-.057.063-.043c.113-.077.238-.161.279-.309.041-.147-.026-.285-.084-.407l-.032-.068.072-.02c.133-.032.281-.068.37-.194.088-.125.073-.276.06-.409l-.006-.077.072.007c.128.014.288.031.416-.058.128-.088.168-.245.201-.369l.019-.072.07.034c.121.059.256.126.403.086.149-.039.236-.165.312-.277l.043-.061.054.055c.083.088.179.181.31.21zm4.193 4.257l.127.57-.489-.319-2.958-4.262.362-.25 2.958 4.261zm2.582-1.791l.128.57-.489-.319-2.958-4.262.361-.251 2.958 4.262zm1.697.318l-2.351 1.636-3.468-4.999.62-.431c.642.869 1.863 2.529 2.481 3.42.862 1.242 1.558.96 1.558.96s.163-1.084-.307-1.761l-2.44-3.517.44-.305 3.467 4.997zm1.335-1.513s.163-1.083-.308-1.761l-2.269-3.269.482-.335 3.465 4.994-2.525 1.758-3.467-4.997.76-.529c.67.909 1.738 2.364 2.302 3.179.863 1.243 1.56.96 1.56.96zm-3.319-5.088l2.958 4.263.127.569-.489-.319-2.957-4.262.361-.251zm-.953-3.219l-.914.634-.28-.48.841-.583.353.429zm1.247 1.512l-1.121.867-.015.011-.483-.828 1.056-.733.563.683zm5.33 4.12l.127.569-.489-.319-2.957-4.262.361-.25 2.958 4.262zm1.835.378l-2.588 1.801-3.465-4.995.716-.496c.664.9 1.778 2.417 2.358 3.254.862 1.242 1.559.96 1.559.96s.163-1.083-.308-1.761l-2.323-3.347.588-.408 3.463 4.992zm.754-2.176l.128.569-.489-.318-2.958-4.262.361-.25 2.958 4.261zm1.924.312l-2.498 1.739-3.463-4.992.717-.499c.67.909 1.739 2.367 2.304 3.181.862 1.243 1.559.96 1.559.96s.163-1.083-.307-1.761l-2.27-3.272.496-.345 3.462 4.989zm.662-2.219l.128.569-.489-.319-2.958-4.261.362-.251 2.957 4.262zm2.015.355l-2.497 1.739-3.462-4.99.495-.344c.67.908 1.74 2.367 2.306 3.182.862 1.243 1.559.961 1.559.961s.163-1.083-.308-1.762l-2.272-3.273.719-.5 3.46 4.987zm.673-2.279l.127.569-.49-.318-2.958-4.262.363-.251 2.958 4.262zm1.975.436l-2.467 1.718-3.46-4.987.646-.449c.67.908 1.741 2.369 2.306 3.183.863 1.243 1.559.96 1.559.96s.163-1.083-.308-1.761l-2.272-3.275.538-.374 3.458 4.985zm42.751-39.478l-2.65 1.849-.372-.535 2.651-1.823.371.509zm-6.834 17.859l-1.247-1.803 14.789-10.445c.609.39 1.143 1.065 1.572 1.784-2.287 1.585-13.26 9.181-15.114 10.464zm-19.407 9.763c-.814-.018-1.891.066-2.141.495-.127.215-.08.558.112.913l-14.232 9.874-.068.449-3.459-4.985.255-.179s42.558-29.403 48.206-33.798c.878.682 1.523 1.311 2.007 1.881l-12.201 8.466c-1.596 1.107-1.135 3.509-.508 4.413l-17.971 12.471zm-4.092 6.632l-.846-1.22 2.439-1.693c.678-.469 1.374-.61 1.961-.395.424.155.752.498.858.892.285 1.069-.741 1.705-.95 1.822-.098.053-10.025 5.448-11.405 6.174-.21.11-.41.151-.604.123l8.547-5.703zm2.375-5.299l.003-.001c-.197-.319-.249-.563-.153-.725.227-.388 1.291-.342 1.8-.319l1.082.09-2.347 1.675-.385-.72zm2.77-.983l-.003.002-.01-.004.013.002zm-1.225 23.073l-.138-.44s1.176-.716-.329-3.319l3.262.648.892-.451.112.163c1.618-1.036 6.618-4.284 7.555-5.464 1.253-1.747.928-3.664.658-4.838 0 0-1.351-3.524-3.975-4.024-2.623-.5-4.7.718-4.7.718l6.367-4.328.09 2.927s2.652 3.982 2.619 4.675c.279 1.211.424 3.182-.884 5.003-.491.619-2.008 1.752-3.601 2.857-1.56 1.082-3.191 2.137-4.003 2.656l.106.153-4.031 3.064zm5.344-6.285c-1.98 1.776-2.859 2.486-2.859 2.486s-3.752-.007-5.041-2.393c-1.514-2.806-.19-4.708.217-5.237l1.443-.078c.215 1.163 1.825 4.839 6.24 5.222zm-5.708-5.661l.167-.008s.667-1.692 3.869-3.646c2.022-1.234 6.374-1.732 7.753 1.503 1.384 3.242-.817 5.472-.817 5.472l-6.713 4.784-.13-.061s2.043-1.667 3.295-2.805c-4.663.264-6.859-2.554-7.424-5.239zm.874 45.45l2.653-1.839c.164.226.339.578.392 1.008.084.675-.159 1.216-.721 1.608h-.001c-.704.49-1.448.11-1.659-.018-.332-.202-.568-.481-.664-.759zm-37.031-30.187l22.406-15.411.02-.014c.167.352.601 1.128 1.287 1.384.374.141.761.107 1.15-.098 1.383-.728 11.312-6.124 11.413-6.178l.224-.14c.634-.44 1.194-1.22.938-2.181-.143-.539-.566-.984-1.131-1.191-.725-.267-1.563-.108-2.362.445l-3.072 2.132.125.181-1.175.815.53.836-6.564 4.49-.68-.98.965-.687c.171.058.283.135.283.135l.542-.376-.162-.233 3.226-2.296.189.272 1.355-.941-.201-.289 2.242-1.595 6.234-4.326 16.536-11.68 1.444 2.088c-2.964 2.113-8.184 5.672-9.673 6.707-1.536 1.065-2.25 3.703-2.25 3.703-2.056 1.538-10.03 6.959-10.512 7.293-.482.335-2.864 3.567-2.181 6.48.652 2.781 2.367 4.079 3.133 4.796s1.479 1.411.152 3.241c-.456.628-2.142 3.538-1.009 6.457l8.65 20.844c-2.34 1.758-13.095 9.802-14.332 10.024-1.388.25-2.776-2.286-3.278-3.589-.502-1.303-6.626-17.268-7.754-19.92-1.128-2.654-3.052-4.979-4.317-5.707-3.572-2.06-7.258-1.561-9.291-.504-.989-.506-2.279-2.286-3.1-3.987zm-.757-.311c-.831-1.625-1.554-5.138-.97-6.669l.044-.102.524-.365c.643.87 1.862 2.528 2.48 3.418.862 1.242 1.559.96 1.559.96s.163-1.083-.307-1.761l-2.439-3.515.572-.397 3.469 4.999-4.932 3.432zM34.075 119.904l5.604 13.639-.788.542-5.761-13.903c.321-.059.637-.152.945-.278zM37.076 101.037c.441.636 1.315.793 1.952.353.637-.442.794-1.315.353-1.953-.442-.636-1.315-.794-1.952-.352-.637.441-.796 1.316-.353 1.952zm.327-.227c-.316-.455-.203-1.081.253-1.397.456-.316 1.081-.203 1.396.252.316.456.203 1.081-.252 1.397-.455.316-1.081.204-1.397-.252zM28.534 117.907c1.407 2.027 4.201 2.533 6.229 1.125 2.027-1.407 2.533-4.201 1.125-6.229s-4.201-2.532-6.228-1.125c-2.028 1.407-2.533 4.201-1.126 6.229zm3.091-1.493l-2.125-.046 1.747-1.212-.613-2.036 1.692 1.287 1.746-1.211-.701 2.006 1.693 1.287-2.125-.045-.701 2.006-.613-2.036zM36.845 116.988l5.986 14.379-.875.604-5.737-13.769c.266-.376.476-.785.626-1.214zM37.038 114.433l6.734 16.284-.755.521-6.069-14.578c.198-.72.231-1.483.09-2.227zM36.048 118.427l5.713 13.679-.878.604-5.567-13.546c.274-.223.518-.47.732-.737zM35.014 119.394l.122-.089 5.553 13.512.103-.042-.918.633-5.591-13.596c.25-.116.495-.254.731-.418z"/></g><g><path d="M446.028 79.71c.309.219 2.099 1.846 2.099 1.846l-.313.582-6.379-4.445.248-.442-2.236-1.56s-.122.132-.345.099c-.224-.032-.111-.415-.111-.415s-1.298-.875-1.852-1.138c-.39.16-1.329 1.905-1.329 1.905l1.607 1.182s.265-.247.451-.117.107.506.107.506l2.263 1.536.427-.318s4.554 3.297 6.227 4.545c-.347.497-1.96 4.992-2.188 5.612-.228.621-2.455 4.113-3.281 5.179-.824 1.066-.02 1.382.947 2.055 3.093 2.155 4.728 3.459 3.484 5.711-.833 1.514-5.665 6.718 2.702 12.898 8.298 6.129 10.921 1.458 13.681-.558 2.758-2.015 5.962.969 6.661 2.981 1.718 4.951-2.703 9.438-4.522 11.432-1.82 1.992-8.215 7.196-8.215 7.196s-.215.22.149.843c-.473 1.208 2.799 3.488 2.799 3.488s-.678.267-.801.795c1 1.127 7.911 5.515 7.911 5.515l.599-.507s3.565 2.301 4.31 2.204c.744-.097 4.934-7.698 7.225-14.163 2.29-6.464 3.95-15.645 3.112-19.122 1.226-1.668 2.289-5.05.822-6.564-.595-.614-1.864-1.576-3.143-2.809.083-1.296-.76-3.909-2.168-5.199.963-.969 5.771-1.925 6.314-1.467.541.46 1.269.886 1.401.403.132-.483-.714-2.097-1.615-2.274-.902-.178-3.181.326-4.082-.794-.901-1.12-1.002-3.036-1.002-3.036l-1.717-.95s.275-1.313-.711-1.618l.002.009c-.107-.696-.256-1.156-.449-1.292-.662-.461-18.699-13.34-18.699-13.34s-2.379-.475-3.668-1.449c-1.047-.792-1.818-.481-2.528-.962l-25.955-17.613c-.486-1.302.396-3.219.712-3.673-.187-.498-3.805-2.776-5.976.101l-2.284-1.551c-1.752.748-3.81 4.053-3.504 5.558l32.813 23.195m3.926-1.629l-.763-.442-.131-.63-34.346-23.469.692-.994 34.396 23.398h.677l.648.453-1.173 1.684zm21.193 38.337c.286-1.206 1.813-3.288 5.584-3.041 3.119.206 3.785 3.779 3.663 5.312-.208 2.593-2.852 18.335-9.182 27.064-.524.722-1.115.864-2.096.15-.979-.713-8.842-6.087-9.666-7.23-.595-.825.104-1.488.662-1.877.559-.39 12.227-8.759 11.68-15.949-.129-1.705-.933-3.222-.645-4.429m.022-9.081c-.229-.159-.284-.474-.126-.702.16-.229.475-.286.703-.126.229.16.285.474.126.703-.16.229-.475.285-.703.125m-4.533.596c-.161-.111-.2-.331-.089-.491.113-.16.331-.2.493-.088.16.112.198.332.087.492-.111.159-.332.199-.491.087m-14.045-9.74c.313.218.39.649.171.961-.218.313-.647.39-.961.172-.312-.219-.389-.648-.17-.961.218-.312.645-.389.96-.172m1.355 1.04c.313.218.39.647.171.959-.217.313-.646.39-.96.172-.313-.218-.389-.647-.172-.96.22-.312.648-.389.961-.171m9.998 1.3l.507.354c-.634.907-1.47 2.704-2.519 1.973.047-.166.254-.408.254-.408l.243.109 1.515-2.028zm7.804-9.991c-.415.654-2.444 3.507-2.444 3.507l-.505-.321 2.809-4.104c-.001.001.554.264.14.918m-5.942 10.719l-.601-.418 5.57-7.994.601.418-5.57 7.994zm-17.918 11.745c-2.079-2.022-5.244-5.703-1.107-9.714 3.162-3.064 6.797-.924 8.169.433 0 0-.557.621-.673 1.716-.178 1.686-1.201 3.931-2.773 5.173-1.573 1.241-4.766-.183-4.849.158-.085.341 1.365 1.352 4 1.589 2.635.236 4.48-2.015 5.373-3.516 1.616 1.125 3.536 1.019 4.579.36.45 1.207 1.148 4.564-2.141 6.867-3.286 2.304-8.501-1.043-10.578-3.066m4.062-24.356l1.18.823-.058.084-3.247 4.659-1.108-.927 3.233-4.639zm-4.204-5.268l.622-.673 4.929 3.434-.816.785-4.735-3.546zm4.208-6.082l5.16 3.72-1.126 1.616-5.125-3.726 1.091-1.61zm-4.799 5.517l-6.088-4.243.183-.396 6.151 4.287-.246.352zm24.17 49.15c.302-.435.919-.529 1.376-.21.458.319.583.93.28 1.365-.304.435-.919.529-1.377.209-.457-.319-.582-.93-.279-1.364"/><path d="M458.237 82.808c.085.058.087.208-.068.441l-.984 1.471-.132.199c-.027-.085-.037.331-.077-.165l.102.069.408.281.847.588c1.152.805 2.404 1.688 3.706 2.607 1.228.95 2.881 1.696 3.593 3.354.373.817-.008 1.922-.872 2.254-.882.306-1.725-.105-2.398-.501-2.575-1.862-4.947-3.503-6.677-4.724l-.617-.434c-.255-.127-.312-.366-.435-.068l-.664.862c-.368.475-.581.742-.598.75-.027.011.147-.245.482-.716l.618-.86.19-.261c.25-.09.23.083.364.115l.621.417c1.733 1.174 4.161 2.79 6.745 4.632.642.398 1.445.764 2.17.555.721-.22 1.115-1.115.81-1.831-.583-1.52-2.229-2.288-3.492-3.236-1.317-.919-2.582-1.803-3.743-2.607l-.853-.588-.41-.28-.101-.068-.025-.017c-.107-.52-.021-.158-.04-.281l.034-.05.132-.201.984-1.475c.179-.267.294-.29.38-.232m12.376 6.124l.231-.331-11.762-8.198-.23.332 11.761 8.197zm-9.621 13.394l.23-.331-10.657-7.428-.231.332 10.658 7.427zm-15.929-12.754l3.752 2.616m26.001-2.045c.049-.07.002-.186-.188-.318-2.956-2.06-7.986-5.538-12.294-8.503-2.153-1.483-4.126-2.836-5.568-3.82-1.551-.82-2.746-.691-2.741-.788-.092.094 1.096.083 2.578.815 1.409 1.007 3.372 2.393 5.523 3.909 4.303 3.032 9.37 6.58 12.326 8.641.219.152.315.134.364.064m6.217 24.069c.051.034.133-.004.222-.146.608-1.054 1.688-2.883.805-4.766-1.067-1.687-3.02-2.553-4.26-3.98-2.833-2.695-2.711-6.207-2.749-6.156-.006-.167-.264 3.403 2.588 6.208 1.225 1.453 3.238 2.428 4.226 3.995.844 1.754-.19 3.545-.799 4.583-.101.161-.085.23-.033.262m-11.871 1.788c.025-.015.026-.058-.017-.126-.665-1.034-2.229-2.726-4.099-3.036-1.925-.321-3.107 1.069-3.103.982-.021.132 1.165-1.222 3.055-.916 1.841.308 3.405 2.009 4.055 3.027.051.076.084.084.109.069m-7.674-2.499c.069.034.166-.028.246-.23.561-1.483.767-4.146-1.109-5.905-.829-.825-2.223-1.381-3.088-1.742-.606-1.128-1.53-1.981-2.438-2.747-1.808-1.57-4.119-2.17-5.685-1.799-1.582.304-2.357 1.045-2.364 1.047-.02.062.738-.628 2.278-.926 1.525-.35 3.783.2 5.575 1.768.896.754 1.813 1.638 2.397 2.696 1.074.683 2.274 1 3.123 1.864 1.786 1.662 1.586 4.225 1.048 5.646-.084.216-.053.296.017.328m-16.567-23.257c-.041-.025-.106.005-.177.118-.527.89-1.341 2.02-2.214 3.266-.203.311-.46.66-.426 1.105.094.442.455.698.765.929.659.449 1.346.813 1.949 1.263 1.227.856 2.121 1.984 2.323 2.975.186.991-.114 1.611-.074 1.627-.031.028.294-.561.148-1.573-.148-1.018-1.04-2.208-2.276-3.093-.603-.463-1.305-.854-1.952-1.292-.309-.224-.646-.486-.722-.83-.055-.349.183-.697.387-1.002.879-1.241 1.714-2.387 2.244-3.284.082-.13.068-.184.025-.209m12.1 45.899c-.209.158-.136.538.05.472.19-.064.243.095.377-.06 2.564-2.183 7.406-5.849 10.381-10.025 1.469-2.099 2.229-4.396 2.305-6.082.096-1.691-.246-2.693-.258-2.643-.052.03.215 1.08.025 2.734-.168 1.653-.995 3.831-2.465 5.837-3.017 3.985-7.747 7.5-10.415 9.767m3.024-27.544c-.023-.044-.096-.056-.214-.004-.919.418-2.457.402-3.712-.464l-.462-.332c-.368.093-.225.334-.379.488-.177.345-.375.686-.613.998-.465.632-1.028 1.192-1.645 1.623-1.227.905-2.688 1.105-3.672.899-.993-.19-1.543-.554-1.57-.526-.018-.027.499.352 1.49.583.983.236 2.494.082 3.772-.819.642-.43 1.229-.995 1.716-1.638.251-.317.461-.664.647-1.02.044-.146.284-.435.126-.48l.481.348c1.296.921 2.917.95 3.891.505.149-.065.167-.117.144-.161m11.367-15.05c-.033.008-.056.055-.043.147.282 1.444-.503 4.003-2.018 5.543-1.398 1.657-3.129 2.329-3.147 2.298-.031.076 1.739-.546 3.185-2.207 1.561-1.546 2.403-4.156 2.105-5.657-.015-.11-.048-.131-.082-.124m4.726.053c-.027.072-.007.146.092.183.276.14 1.048.321 1.083.487.056.533.198 1.102.445 1.658.463 1.153 1.728 1.992 2.948 1.96 1.165.088 2.321-.29 2.945.176.54.564.494 1.139.515 1.13.01.041.115-.522-.398-1.167-.691-.614-1.868-.206-3.002-.33-1.189.005-2.329-.762-2.768-1.861-.232-.528-.364-1.08-.414-1.587-.376-.635-.904-.483-1.256-.726-.112-.042-.162.005-.19.077m-56.598-40.954c.052.037.117.037.169-.027.367-.528 1.192-1 2.157-1.022.868-.112 2.194.525 2.488.845-1.555 1.518-.669 3.515-.555 3.319-.067.208-.806-1.77.589-3.161.06-.085.08.118.172-.208l-.149-.122c-.096-.085-.202-.159-.312-.229-.215-.146-.451-.266-.696-.364-.488-.198-1.018-.298-1.529-.292-1.028.001-1.943.512-2.347 1.093-.065.083-.04.132.013.168m33.13 38.997c-.165-.116-.274-.118-.317-.057-.042.062-.026.145.164.277 1.289.898 3.042 2.118 4.946 3.436.919.674 2.071 1.255 2.573 2.3.293.511-.141 1.092-.685 1.173-.54.1-1.115-.139-1.561-.453-3.77-2.627-6.907-4.751-6.875-4.669.028.044 3.129 2.225 6.839 4.875.484.326 1.085.566 1.718.433.649-.093 1.097-.915.741-1.506-.59-1.14-1.738-1.694-2.639-2.375-1.878-1.319-3.614-2.535-4.904-3.434" fill="#fff"/><path d="M196.929 152.216c0 .336-.168.488-.504.456-.72-.063-1.272-.056-1.656.024l-.528.024c-.368.032-.672.048-.912.048-.336-.016-.496-.048-.48-.096-.064.672-.112 1.072-.144 1.2.032.544.088.952.168 1.224l-.024.984c-.064.448-.24.688-.528.72-.096.048-.216.021-.36-.084-.144-.104-.236-.196-.276-.276-.04-.08-.06-.16-.06-.24 0-.064.032-.176.096-.336.064-.16.084-.292.06-.396-.024-.104-.008-.22.048-.348s.084-.232.084-.312c.016-.112-.016-.392-.096-.84l-.048-.792c-.048-.368-.144-.56-.288-.576h-1.08c-.224-.064-.384-.12-.48-.168-.272-.016-.48-.016-.624 0l-.168-.024c-.081 0-.24.04-.48.12-.24.081-.424.104-.552.072l-.456-.096c-.192-.063-.296-.16-.312-.288-.032-.464.08-.704.336-.72l.6.072c.336-.016.584-.048.744-.096 1.056.08 1.84.152 2.352.216l.264.024c.032-.016.048-.096.048-.24.016-.208.04-.408.072-.6 0-.496-.032-.88-.096-1.152.016-.304-.032-.456-.144-.456l-.48.12c-.48.064-.848.081-1.104.048l-.432.12c-.144.017-.288-.024-.432-.12-.144-.096-.224-.224-.24-.384l-.024-.12c0-.096.12-.208.36-.336.096-.048.268-.068.516-.06.248.008.412-.028.492-.108.272.016.48.048.624.096l.288-.216c.272-.064.472-.1.6-.108.128-.008.336-.068.624-.18.208-.08.392-.096.552-.048.064.016.144-.008.24-.072l.216-.12c.176-.032.336-.104.48-.216.24-.16.552-.184.936-.072.304.081.4.264.288.552-.096.208-.248.328-.456.36l-.624.096-.624.216c-.352.128-.536.184-.552.168.048.144.056.32.024.528l-.072.504c0 .048.028.156.084.324s.068.284.036.348c-.048.064-.052.156-.012.276.04.12.027.216-.036.288-.064.072-.08.164-.048.276l.072.312c.624.064 1.096.081 1.416.048l.216-.048.216-.048.336.072c.112.048.216.041.312-.024.16-.112.416-.168.768-.168.512 0 .776.136.792.408.048.08.072.16.072.24zM214.184 153.2c0 .144-.096.288-.288.432-.192.144-.48.152-.864.024-.08-.032-.16-.048-.24-.048-.081 0-.201.024-.36.072-.16.048-.28.072-.36.072l-.252-.048-.228-.048c-.16 0-.216.16-.168.48.08.528.136.92.168 1.176.128.496.192.896.192 1.2l-.072.108-.072.108.024.072c.064.064.064.176 0 .336l-.456.096c-.128.032-.272-.016-.432-.144-.128-.08-.184-.231-.168-.456.016-.271.016-.44 0-.504-.096-.496-.152-.872-.168-1.128-.112-.576-.168-1-.168-1.272-.752 0-1.048.008-.888.024-.64-.063-1.008-.08-1.104-.048-.4.032-.672.016-.816-.048-.368.017-.6-.016-.696-.096-.16-.128-.24-.28-.24-.456 0-.288.168-.424.504-.408.112 0 .424.032.936.096.4.064.704.072.912.024.256-.032.512-.032.768 0 .208.016.332.004.372-.036.04-.04.06-.147.06-.324-.016-.464-.056-.824-.12-1.08-.048-.176-.088-.352-.12-.528-.048-.24-.112-.4-.192-.48-.048-.032-.256-.016-.624.048-.4-.032-.712-.088-.936-.168l-.432.036-.408.036c-.272 0-.488-.12-.648-.36-.08-.112-.12-.216-.12-.312 0-.192.36-.28 1.08-.264.848.016 1.512-.008 1.992-.072 0-.112-.016-.32-.048-.624-.032-.256-.04-.464-.024-.624-.144-.416-.216-.648-.216-.696-.016-.256.168-.392.552-.408.192.064.344.096.456.096.063.304.08.528.048.672.096.496.192.864.288 1.104.016.192.044.364.084.516.04.152.18.204.42.156.576-.063 1.008-.104 1.296-.12.704-.127 1.12-.063 1.248.192.112.208.072.44-.12.696-.08.096-.184.136-.312.12l-.408-.072c-.368-.048-.616-.016-.744.096-.048.016-.192-.008-.432-.072-.064-.016-.312.048-.744.192l.216 1.152c.016.064.02.228.012.492s.02.444.084.54c.016.016.168.016.456 0 .064-.016.152-.008.264.024l.264.072.24-.06.24-.06.36.072c.112.048.216.032.312-.048.56-.016.84.144.84.48zM226.688 150.608c-.096 0-.24-.08-.432-.24-.448-.288-.792-.488-1.032-.6-.032-.032-.2-.12-.504-.264-.208-.112-.32-.24-.336-.384-.448.016-.72-.16-.816-.528-.112-.384.048-.576.48-.576.192 0 .444.128.756.384s.548.408.708.456c.288.112.592.312.912.6l.48.288c.176.112.264.248.264.408 0 .081-.024.184-.072.312-.176.096-.312.144-.408.144zm5.064 1.176c-.288.208-.504.352-.648.432-.208.225-.336.353-.384.384-.4.096-.64.256-.72.48-.096.272-.312.496-.648.672-.4.224-.736.52-1.008.888-.208.272-.4.444-.576.516-.176.072-.288.168-.336.288-.048.12-.188.236-.42.348-.232.112-.364.232-.396.36-.032.128-.12.216-.264.264-.128.032-.248.024-.36-.024-.24-.128-.36-.272-.36-.432 0-.208.176-.464.528-.768.24-.192.488-.384.744-.576.096-.112.304-.272.624-.48.272-.192.472-.368.6-.528.416-.4.735-.688.96-.864.24-.336.456-.512.648-.528l.144-.216c.063-.112.144-.192.24-.24.208-.096.344-.192.408-.288.096-.176.276-.364.54-.564.264-.2.492-.3.684-.3.224 0 .368.136.432.408.048.224-.096.48-.432.768zM248.984 151.472c-.224.528-.36.928-.408 1.2-.224.544-.336.832-.336.864l-.084.396s-.06.332-.06.444c0 .224-.088.512-.264.864-.225.448-.352.728-.384.84l-.06.48c-.024.16-.1.288-.228.384-.112.081-.336.072-.672-.024-.112-.224-.168-.352-.168-.384-.016-.08.016-.208.096-.384.176-.384.256-.627.24-.732-.016-.104.012-.24.084-.408.072-.168.108-.292.108-.372.032-.208.088-.4.168-.576.176-.352.248-.56.216-.624l-.024-.144c0-.08.04-.192.12-.336l.144-.288.072-.6c.08-.16.144-.271.192-.336.016-.063-.184-.16-.6-.288.048.016-.136.024-.552.024-.032 0-.208-.072-.528-.216-.096-.032-.216-.008-.36.072s-.264.12-.36.12l-.48-.096c-.08-.016-.16-.004-.24.036l-.168.06c-.288.016-.512.024-.672.024-.08 0-.216-.04-.408-.12-.176 0-.304.016-.384.048-.272-.048-.472-.104-.6-.168-.064-.016-.152 0-.264.048-.112.048-.216.048-.312 0-.176-.096-.24-.312-.192-.648.032-.224.352-.336.96-.336.08-.016.172.008.276.072.104.064.188.096.252.096.192-.016.328-.04.408-.072.112.032.288.024.528-.024.224-.032.392-.024.504.024.128.064.344.04.648-.072.112-.032.52.016 1.224.144.32.016.56.016.72 0 .128.081.328.104.6.072l.6-.072c.384.016.584.04.6.072.208.32.224.632.048.936zm-6.336-3.216c-.016-.08-.088-.192-.216-.336-.081-.096-.12-.216-.12-.36 0-.064.096-.136.288-.216.144-.064.255-.096.336-.096.144 0 .432.024.864.072.384.032.68.032.888 0 .48-.063 1.12-.04 1.92.072.544.08.872.104.984.072.352-.112.608-.063.768.144.112.128.168.24.168.336 0 .352-.376.521-1.128.504l-.36-.096c-.096-.032-.2.008-.312.12-.128.032-.288.008-.48-.072l-.48-.144c-.064 0-.225.024-.48.072-.208.048-.36.04-.456-.024-.081-.032-.152-.032-.216 0l-.192.096c-.112.016-.24 0-.384-.048-.032-.016-.156-.028-.372-.036-.216-.008-.34-.036-.372-.084-.08-.08-.296-.072-.648.024zM261.488 150.608c-.096 0-.24-.08-.432-.24-.448-.288-.792-.488-1.032-.6-.032-.032-.2-.12-.504-.264-.208-.112-.32-.24-.336-.384-.448.016-.72-.16-.816-.528-.112-.384.048-.576.48-.576.192 0 .444.128.756.384s.548.408.708.456c.288.112.592.312.912.6l.48.288c.176.112.264.248.264.408 0 .081-.024.184-.072.312-.176.096-.312.144-.408.144zm5.064 1.176c-.288.208-.504.352-.648.432-.208.225-.336.353-.384.384-.4.096-.64.256-.72.48-.096.272-.312.496-.648.672-.4.224-.736.52-1.008.888-.208.272-.4.444-.576.516-.176.072-.288.168-.336.288-.048.12-.188.236-.42.348-.232.112-.364.232-.396.36-.032.128-.12.216-.264.264-.128.032-.248.024-.36-.024-.24-.128-.36-.272-.36-.432 0-.208.176-.464.528-.768.24-.192.488-.384.744-.576.096-.112.304-.272.624-.48.272-.192.472-.368.6-.528.416-.4.735-.688.96-.864.24-.336.456-.512.648-.528l.144-.216c.063-.112.144-.192.24-.24.208-.096.344-.192.408-.288.096-.176.276-.364.54-.564.264-.2.492-.3.684-.3.224 0 .368.136.432.408.048.224-.096.48-.432.768zM286.015 152.216c0 .336-.168.488-.504.456-.72-.063-1.271-.056-1.656.024l-.527.024c-.368.032-.672.048-.912.048-.336-.016-.496-.048-.48-.096-.064.672-.112 1.072-.144 1.2.032.544.088.952.168 1.224l-.024.984c-.064.448-.24.688-.528.72-.096.048-.216.021-.36-.084-.144-.104-.236-.196-.276-.276-.04-.08-.06-.16-.06-.24 0-.064.032-.176.096-.336.064-.16.084-.292.06-.396-.024-.104-.008-.22.048-.348s.084-.232.084-.312c.016-.112-.016-.392-.096-.84l-.048-.792c-.048-.368-.144-.56-.288-.576h-1.08c-.224-.064-.384-.12-.48-.168-.272-.016-.48-.016-.624 0l-.168-.024c-.081 0-.24.04-.48.12-.24.081-.424.104-.552.072l-.456-.096c-.192-.063-.296-.16-.312-.288-.032-.464.08-.704.336-.72l.6.072c.336-.016.584-.048.744-.096 1.056.08 1.84.152 2.352.216l.264.024c.032-.016.048-.096.048-.24.016-.208.04-.408.072-.6 0-.496-.032-.88-.096-1.152.016-.304-.032-.456-.144-.456l-.48.12c-.48.064-.848.081-1.104.048l-.432.12c-.144.017-.288-.024-.432-.12-.144-.096-.224-.224-.24-.384l-.024-.12c0-.096.12-.208.36-.336.096-.048.268-.068.516-.06.248.008.412-.028.492-.108.272.016.48.048.624.096l.288-.216c.272-.064.472-.1.6-.108.128-.008.336-.068.624-.18.208-.08.392-.096.552-.048.064.016.144-.008.24-.072l.217-.12c.176-.032.336-.104.479-.216.24-.16.552-.184.937-.072.303.081.399.264.287.552-.096.208-.248.328-.455.36l-.625.096-.623.216c-.353.128-.537.184-.552.168.048.144.056.32.024.528l-.072.504c0 .048.028.156.084.324s.068.284.036.348c-.048.064-.052.156-.012.276.04.12.027.216-.036.288-.064.072-.08.164-.048.276l.072.312c.624.064 1.096.081 1.417.048l.215-.048.217-.048.336.072c.111.048.216.041.313-.024.159-.112.416-.168.768-.168.512 0 .775.136.792.408.044.08.068.16.068.24zM301.159 152.24c0-.032-.088.168-.265.6v.504c-.096.096-.185.152-.264.168l.071.312c.016.096-.016.24-.096.432-.208.432-.393.672-.552.72-.128.048-.28.028-.456-.06s-.28-.196-.313-.324c-.016-.08.057-.255.217-.528.031-.144.048-.26.048-.348 0-.087.052-.208.155-.36.104-.152.133-.332.084-.54-.207-.08-.488-.128-.84-.144h-1.535c.048.624.063.984.048 1.08-.017.096.008.224.071.384.064.16.088.296.072.408-.016.224 0 .504.049.84l.119.84c-.352.192-.607.24-.768.144-.129-.064-.213-.18-.252-.348l-.133-.492c-.031-.112-.043-.3-.035-.564.008-.264-.028-.459-.108-.588-.08-.128-.104-.312-.071-.552.047-.272.055-.464.023-.576-.048-.16-.104-.308-.168-.444s-.191-.196-.384-.18h-.696c-.176.064-.372.016-.588-.144-.216-.16-.324-.32-.324-.48 0-.128.076-.232.229-.312.151-.08.404-.104.756-.072l.264.12.217-.024c.271.032.407-.056.407-.264 0-.096-.036-.268-.108-.516-.071-.248-.107-.428-.107-.54 0-.208.088-.328.264-.36.08-.032.16-.048.24-.048.208 0 .348.124.42.372.072.249.136.488.191.72.057.232.093.428.109.588.239.096.592.128 1.055.096-.096 0 .256.017 1.057.048.48.016.832.016 1.057 0l.695.024.072.156c.049.104.073.188.073.252zM319.087 151.76c.016.081-.037.208-.156.384-.12.176-.229.264-.324.264l-.096-.072c-.08-.112-.248-.16-.504-.144-.192.016-.385.04-.576.072l-.313.048c-.111.032-.216.024-.312-.024-.304-.128-.521-.184-.647-.168-.081 0-.201.032-.361.096-.16.064-.287.088-.383.072-.064 0-.152-.028-.265-.084s-.2-.084-.264-.084l-.168.048c-.16.048-.265.048-.312 0l-.265.084c-.144.056-.272.068-.384.036-.192-.08-.408-.072-.648.024-.368 0-.648-.024-.84-.072-.352.032-.544.04-.576.024l-.456-.096c-.304.08-.496.12-.575.12-.24 0-.425-.104-.553-.312-.08-.112-.119-.208-.119-.288 0-.24.271-.392.815-.456.336-.016.672-.024 1.008-.024.144-.016.34.004.588.06s.429.084.54.084c.128 0 .256-.02.385-.06.127-.04.344-.048.647-.024s.528.004.672-.06c.512-.032.888-.016 1.128.048.096-.016.304 0 .624.048.256.032.448.016.576-.048.224 0 .399.032.528.096l.647-.072c.594-.096.906.064.939.48z"/></g></svg>